STARTFONT 2.3
FONT -FontForge-Henny Penny-Book-R-Normal--20-200-72-72-P-115-ISO10646-1
SIZE 20 72 72  4
FONTBOUNDINGBOX 28 36 -3 -13
COMMENT "Generated by fontforge, http://fontforge.sourceforge.net"
COMMENT "Copyright (c) 2012, Brownfox (gayaneh.b@gmail.com), with Reserved Font Name "Henny Penny""
STARTPROPERTIES 40
FOUNDRY "FontForge"
FAMILY_NAME "Henny Penny"
WEIGHT_NAME "Book"
SLANT "R"
SETWIDTH_NAME "Normal"
ADD_STYLE_NAME ""
PIXEL_SIZE 20
POINT_SIZE 200
RESOLUTION_X 72
RESOLUTION_Y 72
SPACING "P"
AVERAGE_WIDTH 115
CHARSET_REGISTRY "ISO10646"
CHARSET_ENCODING "1"
FONTNAME_REGISTRY ""
CHARSET_COLLECTIONS "ISO10646-1"
BITS_PER_PIXEL 4
FONT_NAME "HennyPenny-Regular"
FACE_NAME "Henny Penny"
COPYRIGHT "Copyright (c) 2012, Brownfox (gayaneh.b@gmail.com), with Reserved Font Name "Henny Penny""
FONT_VERSION "1.001"
FONT_ASCENT 16
FONT_DESCENT 4
UNDERLINE_POSITION -2
UNDERLINE_THICKNESS 1
X_HEIGHT 11
CAP_HEIGHT 15
RAW_ASCENT 799
RAW_DESCENT 200
NORM_SPACE 5
RELATIVE_WEIGHT 40
RELATIVE_SETWIDTH 50
SUPERSCRIPT_X 0
SUPERSCRIPT_Y 7
SUPERSCRIPT_SIZE 12
SUBSCRIPT_X 0
SUBSCRIPT_Y 1
SUBSCRIPT_SIZE 12
AVG_LOWERCASE_WIDTH 103
AVG_UPPERCASE_WIDTH 144
ENDPROPERTIES
CHARS 233
STARTCHAR space
ENCODING 32
SWIDTH 270 0
DWIDTH 5 0
BBX 1 1 0 0
BITMAP
00
ENDCHAR
STARTCHAR exclam
ENCODING 33
SWIDTH 249 0
DWIDTH 5 0
BBX 3 20 1 -1
BITMAP
9E60
EFC0
EFE0
CFD0
9FD0
7FC0
5FB0
3F90
1F80
0F60
0E50
0D30
0C10
0A00
0600
0000
0000
8E40
DF90
7E40
ENDCHAR
STARTCHAR quotedbl
ENCODING 34
SWIDTH 292 0
DWIDTH 6 0
BBX 4 7 1 9
BITMAP
C46A
F69C
D68B
B58A
9579
6457
3334
ENDCHAR
STARTCHAR numbersign
ENCODING 35
SWIDTH 1030 0
DWIDTH 21 0
BBX 19 23 1 -7
BITMAP
00000000008000000000
00000000054000000000
000000000A0053000000
000000002800A0000000
00000000820470000000
33211002A00B10000000
466778BFD8CE65666520
0000002C00D200013420
00000065049000000000
000000C00A2000000000
000005903A0136840000
00135DBAEC8753100000
9CB9CD46C00000000000
0000C609500000000000
0004E11D000000000000
000B8077000000000000
003F20D1000000000000
008905A0000000000000
00610C40000000000000
00003C00000000000000
00009600000000000000
0000C100000000000000
00001000000000000000
ENDCHAR
STARTCHAR dollar
ENCODING 36
SWIDTH 799 0
DWIDTH 16 0
BBX 13 23 1 -5
BITMAP
00000000010000
00000000260010
00000000540280
000006CEFCAE30
00007FB297FD00
0001EF40908A00
0002FF71803800
0001FFE6501500
0000AFFF200000
00002EFFB00000
000004FFF90000
0000006FFF6000
0000005AFFE100
005000818FF700
008100900DFB00
00B2019008FB00
01E6045007F900
05FD17200BF400
0A5BCB028F8000
12006EFEB50000
00002700000000
00006300000000
00003000000000
ENDCHAR
STARTCHAR percent
ENCODING 37
SWIDTH 789 0
DWIDTH 16 0
BBX 16 19 0 0
BITMAP
0000000000001800
006CEC600000A300
05F619F500059000
0CF000EB002C1000
0EF000CD00B30000
0CF400DB08800000
05FC24F54C000000
006DEC51D2000000
0000000A60000000
0000006A00000000
000002D106CFD600
00000C407F616F70
00008801EB000CF1
0003B004F8000AF3
001C2005F7000BF3
00950003FA000DE0
04900000BF517F50
1C10000019DFC400
7300000000000000
ENDCHAR
STARTCHAR ampersand
ENCODING 38
SWIDTH 773 0
DWIDTH 15 0
BBX 15 20 0 -2
BITMAP
00006DFC30000000
0007C31AC0000000
001E3006D0000000
003F000BA0000000
004F106F30000000
003F35F800000000
001FCFB000000000
000CFD100000A300
005FF600001AF500
02EFFD0017DFF400
0AFC9F637415F300
1FF71EE10001E000
4FF407FB0002B000
4FF500CF70075000
3FF7003FF61B0000
0CFE1006FFC20000
03EFD301BFF80070
0029DFEC7AFFCA80
0000000000AFFE10
000000000007E400
ENDCHAR
STARTCHAR quotesingle
ENCODING 39
SWIDTH 174 0
DWIDTH 4 0
BBX 2 6 1 10
BITMAP
C5
E7
C7
96
65
23
ENDCHAR
STARTCHAR parenleft
ENCODING 40
SWIDTH 431 0
DWIDTH 9 0
BBX 9 29 0 -9
BITMAP
0000700000
0006600000
001D000000
0099000000
01E4000000
07F0000000
0CC0000000
1FA0000000
4F80000000
7F70000000
9F60000000
BF50000000
BF50000000
BF60000000
AF70000000
9F90000000
6FC0000000
3FF0000000
0EF4000000
09F9000000
03FE100000
00BF600000
003FD00000
0008F60000
0000CE1000
00002DA000
000003E700
0000002C40
0000000010
ENDCHAR
STARTCHAR parenright
ENCODING 41
SWIDTH 443 0
DWIDTH 9 0
BBX 9 20 0 -5
BITMAP
07B4000000
006FA10000
0005FC1000
00008FC000
00000DF600
000006FE00
000001FF40
000000CF80
000000AF90
0000009FA0
0000009F90
000000BF70
000000EF30
000003FC00
000009F500
00003FA000
0002DC1000
003DB10000
18D6000000
5500000000
ENDCHAR
STARTCHAR asterisk
ENCODING 42
SWIDTH 490 0
DWIDTH 10 0
BBX 8 9 1 10
BITMAP
00041000
000F7000
000CA046
0007B3F7
CB62CB70
7AAAE500
003C7D30
04F60AF4
024002E8
ENDCHAR
STARTCHAR plus
ENCODING 43
SWIDTH 440 0
DWIDTH 9 0
BBX 7 11 1 1
BITMAP
00062000
00062000
00062000
00072000
011A4330
DFEFDA60
00075000
00056000
00038000
00019000
00005000
ENDCHAR
STARTCHAR comma
ENCODING 44
SWIDTH 251 0
DWIDTH 5 0
BBX 3 7 1 -4
BITMAP
9E70
EFF0
AFF0
1CC0
0860
0A00
6300
ENDCHAR
STARTCHAR hyphen
ENCODING 45
SWIDTH 436 0
DWIDTH 9 0
BBX 7 2 1 4
BITMAP
32001210
8CEFFE70
ENDCHAR
STARTCHAR period
ENCODING 46
SWIDTH 238 0
DWIDTH 5 0
BBX 3 3 1 -1
BITMAP
8E60
EFB0
9E60
ENDCHAR
STARTCHAR slash
ENCODING 47
SWIDTH 690 0
DWIDTH 14 0
BBX 14 20 0 -1
BITMAP
00000000000004
00000000000083
00000000000490
00000000001C10
0000000000B400
00000000078000
000000003C0000
00000001D30000
0000000A600000
0000006A000000
000002D1000000
00000C40000000
00008800000000
0004B000000000
001C2000000000
00950000000000
05900000000000
1C100000000000
93000000000000
10000000000000
ENDCHAR
STARTCHAR zero
ENCODING 48
SWIDTH 723 0
DWIDTH 14 0
BBX 15 14 0 1
BITMAP
00018CEFD9300000
005EB3114AF90000
04FA0000009F9000
0EF10000000DF400
6FB000000008FB00
9F8000000005FF10
BF7000000003FF30
BF8000000002FF30
9FB000000003FF20
4FE100000005FD00
0DF700000009F700
03EE4000003FC100
004DF83115EC1000
00016BEFEB500000
ENDCHAR
STARTCHAR one
ENCODING 49
SWIDTH 505 0
DWIDTH 10 0
BBX 10 18 0 -1
BITMAP
0000630000
0000D60000
0008F80000
007FFB0000
1ABBFD0000
A401FF1000
0000CF3000
00009F6000
00007F9000
00005FB000
00004FE000
00002FF200
00001FF500
00000FFA00
00002FFF40
0000AFFFF9
005DD84101
04B5000000
ENDCHAR
STARTCHAR two
ENCODING 50
SWIDTH 534 0
DWIDTH 11 0
BBX 11 18 0 -2
BITMAP
004BEEB40000
06FFFFFF5000
2E6129FFD000
860000CFF200
A000008FF100
8000007FD000
5000009F6000
000000DC0000
000005E20000
00001D300000
0001A3000000
001820000000
038000000000
4FF920000060
03AFFB621920
0004CFFFF700
000007FFE100
0000003C6000
ENDCHAR
STARTCHAR three
ENCODING 51
SWIDTH 511 0
DWIDTH 10 0
BBX 11 17 0 -1
BITMAP
085200000000
1FFFFEDC3000
0F82016D0000
0B0000C30000
150008600000
000049000000
0000D4000000
00002BD50000
0000009F9000
0000000CF700
50000005FE00
90000003FF20
B1000004FF30
8A000009FF10
1EB4128FF900
05FFFFFFD100
002AEFD81000
ENDCHAR
STARTCHAR four
ENCODING 52
SWIDTH 712 0
DWIDTH 14 0
BBX 14 21 0 -3
BITMAP
00000000100000
00000002A00000
0000000B700000
0000009F400000
000006EF500000
0000556F700000
0005503FA00000
0047001FD00000
05A0000DF10000
5F20000BF50000
8EE71008F90000
016CE946FD0001
00003AFEFF5163
00000028FFFFB0
00000000DFCE40
00000000AF9000
000000007FD000
000000008FF400
0000003ACEFD20
000000000026B8
00000000000002
ENDCHAR
STARTCHAR five
ENCODING 53
SWIDTH 757 0
DWIDTH 15 0
BBX 16 20 0 -2
BITMAP
0000000000000011
00000002D71000A1
0000000AFFE728A0
000000374DFFFF40
0000008001AFFC00
000003400005E400
0000070000000000
00003D9730000000
00005CFFFB200000
00000029FFE20000
000000005FFA0000
160000000BFF1000
8100000006FF3000
A000000005FF3000
A000000006FF1000
A000000009FC0000
920000000EF50000
3C0000008FB00000
06D5103AFB100000
003ADFEB50000000
ENDCHAR
STARTCHAR six
ENCODING 54
SWIDTH 598 0
DWIDTH 12 0
BBX 12 16 0 0
BITMAP
00018CEEB500
003EF7114C80
01EF600000B4
0AFC00000018
2FF600000000
6FF37CFEA300
9FFC8213BF60
AFF900000CF2
BFF3000006F7
AFF0000003FA
7FE0000001FB
3FF0000003FA
0CF4000005F6
03FC00000CD0
005EB302AE30
00028DFE9200
ENDCHAR
STARTCHAR seven
ENCODING 55
SWIDTH 507 0
DWIDTH 10 0
BBX 11 17 0 -2
BITMAP
431000136910
DFFFFFFFF700
BA1148DFD000
9400000B5000
7100001C0000
500000860000
000001D00000
000009800000
00001F300000
00008D000000
0001E9000000
0006F6000000
000CF3000000
003FF2000000
008FF1000000
00DFD0000000
004000000000
ENDCHAR
STARTCHAR eight
ENCODING 56
SWIDTH 476 0
DWIDTH 10 0
BBX 10 16 0 -1
BITMAP
004BEDA200
05FE414B00
0EF9000820
2FF9000810
1FFE201800
0AFFD68100
02DFFF6000
003FFFF900
05D65BFF70
2E20007FE1
9900000BF5
C6000005F6
C7000004F4
9D000008E0
1DB4127E40
019DEEA300
ENDCHAR
STARTCHAR nine
ENCODING 57
SWIDTH 601 0
DWIDTH 12 0
BBX 12 15 0 0
BITMAP
004AEFEA4000
07FA214DFA00
3FC00002EF90
9F7000008FF2
BF5000004FF7
BF6000002FFB
9F9000003FFC
3FE200006FFB
07FE6215EFFA
004BEFEA9FF7
000000007FF2
00000000BFA0
00000005FE20
1B62028FD300
028DEEC71000
ENDCHAR
STARTCHAR colon
ENCODING 58
SWIDTH 246 0
DWIDTH 5 0
BBX 3 11 1 -1
BITMAP
9E70
EFC0
9E60
0000
0000
0000
0000
0000
5E80
AFD0
6E80
ENDCHAR
STARTCHAR semicolon
ENCODING 59
SWIDTH 266 0
DWIDTH 5 0
BBX 4 13 1 -4
BITMAP
4EC1
9FF4
4EC1
0000
0000
0000
0000
7EA0
CFF1
6FE0
0B80
1B10
8200
ENDCHAR
STARTCHAR less
ENCODING 60
SWIDTH 522 0
DWIDTH 10 0
BBX 9 10 1 1
BITMAP
0000001800
000004C300
0001991000
006B400000
3B80000000
9E50000000
03BC400000
0004CB3000
000005D910
0000000430
ENDCHAR
STARTCHAR equal
ENCODING 61
SWIDTH 655 0
DWIDTH 13 0
BBX 12 4 1 4
BITMAP
002468ACDEE1
8BA976432100
000000000000
CFEEDDCCB700
ENDCHAR
STARTCHAR greater
ENCODING 62
SWIDTH 533 0
DWIDTH 11 0
BBX 9 10 1 1
BITMAP
7600000000
05B4000000
0019910000
00004C7000
0000018C20
0000005D20
000007B100
0002B60000
005B200000
0560000000
ENDCHAR
STARTCHAR question
ENCODING 63
SWIDTH 564 0
DWIDTH 11 0
BBX 11 18 0 -2
BITMAP
0018CEEB6000
03E7215EFA00
0CB00005FF40
5FA00000FF90
8FF30000FFA0
8FFD1002FF80
5FFF4009FF20
0AEC105FF700
000005FE6000
00006FB20000
0006D4000000
003A10000000
009100000000
00B260000000
005E80000000
000000000000
001DC0000000
001CD1000000
ENDCHAR
STARTCHAR at
ENCODING 64
SWIDTH 898 0
DWIDTH 18 0
BBX 17 20 1 -6
BITMAP
0000049DEED9300000
0002BC620137D90000
002D600000001A8000
00C40000000100C300
0860000001FF004900
1B0019DEC6FE000C00
5601CD415EFE000A10
A108F40008FD000920
A00EF00003FC000820
A02FE00003FB000910
A04FF10004FB000A00
A02FF60009FB000A00
B00DFE405EDD004700
A105FFFFFA7F52B100
75005CEFC209EC3000
1B000000CE40000000
09600001EFB0000000
01D500002EA0000000
002D93115F40000000
00018DFEB400000000
ENDCHAR
STARTCHAR A
ENCODING 65
SWIDTH 784 0
DWIDTH 16 0
BBX 16 18 0 -2
BITMAP
0000136B90000000
0008EDFFE1000000
000000DFF5000000
000001D9FB000000
00000574FF100000
00000A20EF600000
00001C00AFC00000
000068006FF20000
0000BE954FF70000
0002E26BFFFD0000
000880002DFF3000
001E200004FF9000
019B000000DFE000
EFFC1000008FF500
026BE000004FFB00
00001000000EFF81
00000000015FFFFE
000000000C952000
ENDCHAR
STARTCHAR B
ENCODING 66
SWIDTH 685 0
DWIDTH 14 0
BBX 14 20 0 -3
BITMAP
332358CEEC5000
16EFD203BFF400
004FD0001EFA00
000EE0000BFB00
000CF0000AF800
000BF1000DE100
000AF2007D3000
0009F439A10000
0009FEBBEE9200
0009F50019FE30
0009F60000BFC0
0009F700003FF4
0009F900001FF6
000AFA00001FF5
000AFB00003FF2
000BFE0000AFB0
000EFF8128FC10
008FFEFFEC7000
2B830000000000
72000000000000
ENDCHAR
STARTCHAR C
ENCODING 67
SWIDTH 742 0
DWIDTH 15 0
BBX 15 19 0 -2
BITMAP
0000000000004200
0000000000007200
000000000000A200
00005ADFFDBCF300
003CFB41139FF500
03EF90000004F700
0CFD000000006B00
4FF7000000000900
9FF4000000000000
CFF2000000000000
DFF1000000000000
DFF2000000000060
CFF4000000000080
9FF8000000000170
3FFD000000000640
0BFF700000000A00
01DFF50000009400
002BFFA4114B6000
000049DEED930000
ENDCHAR
STARTCHAR D
ENCODING 68
SWIDTH 726 0
DWIDTH 15 0
BBX 15 17 0 -4
BITMAP
48778ACEFDB40000
17FFE4114CFF8000
008FB00000BFF500
004FB000002FFC00
002FB000000BFF10
001FB0000009FF30
000FC0000008FF20
000FD0000009FF10
000FF000000CFC00
000FF200002FF600
000FF50000BFB000
002FFD302AF80000
005FFFFEA6100000
00BFE83000000000
05E7100000000000
3B20000000000000
7100000000000000
ENDCHAR
STARTCHAR E
ENCODING 69
SWIDTH 557 0
DWIDTH 11 0
BBX 12 19 0 -3
BITMAP
5544468ACE00
2CFFB3101D00
04FF80000900
01FF80000600
00DF90000000
00BF90000000
009FA0020000
007FB0170000
006FFEF70000
004FC1760000
002FD0160000
001FE0030000
000FF0000000
000DF1000000
000CF2000032
000CF3000091
001DF60006E0
7EFFFFDCEFC0
000112457840
ENDCHAR
STARTCHAR F
ENCODING 70
SWIDTH 533 0
DWIDTH 11 0
BBX 11 18 0 -1
BITMAP
000000027CE0
123474111AD0
26FFF40005A0
009FF4000670
006FF4000720
004FF4030200
001FF5080000
000EF5490000
000CFFF90000
000BF6490000
0009F6080000
0008F7050000
0007F7000000
0006F8000000
0005F8000000
0006F9000000
013CFD100000
5FECBDE40000
ENDCHAR
STARTCHAR G
ENCODING 71
SWIDTH 750 0
DWIDTH 15 0
BBX 15 15 0 0
BITMAP
0000000000000040
00000000000003A0
00006ADFD9301C20
003DFA3114BDE900
03EF7000000CF200
0DFB00000008B000
6FF5000000075000
BFF2000000030000
DFF000000246AD30
DFF1000AEDFFF400
BFF30000004FF100
7FF80000001FF100
0DFE2000005FF300
02DFE61026C8A500
0017CEFEB5000000
ENDCHAR
STARTCHAR H
ENCODING 72
SWIDTH 743 0
DWIDTH 15 0
BBX 15 21 0 -3
BITMAP
2962000000000000
01CFFFFD20000000
006FF50101359D90
005FF000DFFFF400
004FF000009FF100
004FF000005FF000
004FF000003FF000
004FF000002FE000
004FF000002FE000
004FF000139FE000
004FFEEEDBDFD000
004FF520004FD000
004FF000001FD000
005FF000000FC000
005FF100000EC000
005FF100000DC000
006FF100000CD000
006FF100014FE200
00AFF3008FFFFE60
6DFFFC0013101210
6410141000000000
ENDCHAR
STARTCHAR I
ENCODING 73
SWIDTH 438 0
DWIDTH 9 0
BBX 11 21 -1 -4
BITMAP
3BBA99ACEFB0
025EFFFA2000
0006FFD00000
0003FF900000
0003FF600000
0003FF400000
0002FF200000
0002FF000000
0002FD000000
0002FC000000
0002FB000000
0002F9000000
0002F8000000
0002F7000000
0003F7000000
0003F6000000
0004F6000000
0007FB100000
006EFFFD0000
6C9521000000
400000000000
ENDCHAR
STARTCHAR J
ENCODING 74
SWIDTH 628 0
DWIDTH 13 0
BBX 14 24 0 -5
BITMAP
00000000000275
0000001358CE82
00006FFFFFD100
0000005FFF6000
0000000AFF3000
00000006FF2000
00000004FF2000
00000002FF2000
00000001FF2000
00000001FF1000
00000000FF1000
00000000FF0000
00000000FD0000
00000001FC0000
00000002FA0000
00000004F80000
00000006F50000
00000009F20000
1AEC300DC00000
9FFF902F600000
DFFF609E000000
C61204F5000000
79116E80000000
08EEB500000000
ENDCHAR
STARTCHAR K
ENCODING 75
SWIDTH 866 0
DWIDTH 17 0
BBX 18 18 0 -2
BITMAP
01136A700000000000
BFFFF7005B52000000
03EFD0000AFFFF5000
00BFB00008C4000000
00AFB0003A00000000
008FC0029000000000
007FC02D1000000000
006FD2DF4000000000
005FEAEFB000000000
004FE18FF500000000
003FD01EFE100002A0
002FD006FFB0000066
001FD000BFFB10002A
000FE0001CFFD6119A
000FF00001AFFFFFF4
004FF4000004BEFC50
03FEFD400000000000
000016A20000000000
ENDCHAR
STARTCHAR L
ENCODING 76
SWIDTH 660 0
DWIDTH 13 0
BBX 13 15 0 0
BITMAP
58520000000000
27CFFEEEE00000
000CFFC2000000
0009FF70000000
0008FF50000000
0007FF30000000
0007FF10000000
0006FF00000000
0006FE00005200
0006FD00002700
0006FC00000B00
0007FB00000E20
000AFE30029F80
07BFFFFFFFFFC0
17653211000000
ENDCHAR
STARTCHAR M
ENCODING 77
SWIDTH 1089 0
DWIDTH 22 0
BBX 23 17 0 -1
BITMAP
000000000000000000011000
00000000000000004FFF7000
0000000000000000CF730000
0008C98700000003FA000000
00006FFF9000000AFA000000
000009CFF600002FFC000000
0000066DFE200098FE000000
00000465FFC102A1FF200000
00000370CFF90A30CF500000
000003803FFF9A009F800000
000004700AFFF3006FC00000
0000056002EFB0003FF10000
00000840008F40000FF60000
8E600D10001700000CFC0000
FFF8B900000000000BFF9200
DFFFE100000000007FFFFF40
4DEB20000000001985210100
ENDCHAR
STARTCHAR N
ENCODING 78
SWIDTH 799 0
DWIDTH 16 0
BBX 16 19 0 -4
BITMAP
0012200000000135
DFFFF70000EEEFD9
019FFF700003DB00
004EFFF600008600
002A5FFF50007500
001A08FFF5006400
001A00AFFF407300
000A001DFFE48300
000A0002EFFFE200
000A00005FFFF200
000A000007FFF200
000A000000AFF100
000A0000000BF100
000A00000001B000
001B000000000000
004D000000000000
02CF300000000000
AEEFE81000000000
0001582000000000
ENDCHAR
STARTCHAR O
ENCODING 79
SWIDTH 747 0
DWIDTH 15 0
BBX 15 15 0 0
BITMAP
00018CEFDA500000
005EB3115EFC2000
04FC000001DFE200
1EF30000003FFB00
6FD00000000CFF40
AFA000000007FF80
DF9000000004FFB0
DF9000000002FFC0
CFB000000001FFB0
AFE000000002FF80
6FF400000003FF40
0EFB00000008FC00
04FF7000002EE200
005EFA3015ED3000
00017BEFEB600000
ENDCHAR
STARTCHAR P
ENCODING 80
SWIDTH 623 0
DWIDTH 12 0
BBX 13 18 0 -3
BITMAP
0000148DFEA200
DEEFFFA12AFE10
015EFF1001FF50
0007FE0000DF60
0004FD0000EF50
0003FD0004FE10
0003FD103DF500
0003FFEFEA3000
0003FC00000000
0004FD00000000
0005FD00000000
0006FD00000000
0007FE00000000
0008FF00000000
0009FF20000000
000DFF50000000
005FFFD2000000
37620158840000
ENDCHAR
STARTCHAR Q
ENCODING 81
SWIDTH 804 0
DWIDTH 16 0
BBX 23 24 0 -9
BITMAP
000049DEEC93000000000000
001AD51139FFA10000000000
01DD1000003EFC1000000000
0AF300000004FFA000000000
3FC000000000AFF300000000
8F80000000003FF800000000
CF70000000000EFB00000000
DF70000000000CFC00000000
DF80000000000AFB00000000
CFB0000000000BF900000000
9FE100005DEB2CF600000000
3FF70002B12CDFE100000000
0BFE20073002FF8000000000
01DFC2090001EF4000000000
002BFE7A015DDFA000000000
00004ADFEC935FF100000000
0000000000002FF600000000
0000000000000EFB00000000
0000000000000BFF20000050
00000000000007FF90000080
00000000000002FFF3000280
00000000000000AFFD403D30
000000000000002DFFFFF800
00000000000000029EFD6000
ENDCHAR
STARTCHAR R
ENCODING 82
SWIDTH 869 0
DWIDTH 17 0
BBX 18 15 0 -1
BITMAP
001247BEFC60000000
DFFFFE414EF6000000
03CFF90008FD000000
004FF60006FF000000
000EF50008FE000000
000CF4001EFA000000
000AF526DFE2000000
0008FFFFFC30000000
0007F50BFA00000000
0006F605FF30000000
0005F700DFC0000006
0006F9005FFA000009
001AFD000AFFD5115C
4FFEEFB1009FFFFFF6
000002550004BEFC60
ENDCHAR
STARTCHAR S
ENCODING 83
SWIDTH 517 0
DWIDTH 10 0
BBX 12 19 -1 -2
BITMAP
000000000060
000019DE9180
0000CE314DA0
0005F8000690
0007F8000170
0006FD100020
0001FF900000
00008FF60000
00000CFF5000
000002EFE300
0000003FFD10
01000007FF80
18000000CFE1
0B0000006FF5
096000002FF7
07D100000FF6
06FA00003FF1
06CAB313CF60
06102AEEB400
ENDCHAR
STARTCHAR T
ENCODING 84
SWIDTH 659 0
DWIDTH 13 0
BBX 14 21 0 -3
BITMAP
7EA74210000000
8FFFFFFFFFFFFA
6F51000DC015EB
2C00000EC0007A
0B00000FC00048
0810001FC00024
0250001FC00000
0000002FC00000
0000003FC00000
0000004FC00000
0000004FC00000
0000005FC00000
0000006FC00000
0000007FC00000
0000007FC00000
0000009FD00000
000000BFF20000
000001EFFA2000
00000BFFFFFF60
0000AD73100000
00086000000000
ENDCHAR
STARTCHAR U
ENCODING 85
SWIDTH 690 0
DWIDTH 14 0
BBX 15 15 0 1
BITMAP
0000016C60000000
0357BFE600000000
EFFFFF3000000000
04EFFB02EDCCDB90
00AFF70003BF9000
008FF500000E5000
007FF400000A3000
007FF40000083000
006FF50000083000
004FF60000082000
002FF80000090000
000DFC0000090000
0006FF4000560000
00009FD304B00000
000006CFE9100000
ENDCHAR
STARTCHAR V
ENCODING 86
SWIDTH 798 0
DWIDTH 16 0
BBX 18 15 0 0
BITMAP
0000248B5000000000
BFEFFF900000000035
015DFF8000000006D3
0001DFD0000137DE20
00004FF5007FFFE300
00000BFD00002F6000
000003FF60002C0000
000000BFE100750000
0000004FF800A00000
0000000DFF34600000
00000006FFDB000000
00000001EFF7000000
000000008FE1000000
000000002F90000000
000000000830000000
ENDCHAR
STARTCHAR W
ENCODING 87
SWIDTH 1120 0
DWIDTH 22 0
BBX 26 17 -1 -2
BITMAP
0000000000000000003C742000
00000000000000000003BFFFFC
000000200000000000000DD300
000007600000000000001E4000
0004CE000000000000005A0000
39DFFD00000000000000A30000
111AFF20000A70000001B00000
0001EF70004FF3000008400000
0000AFC00099FC00000B000000
00005FF40541FF700066000000
00001EFB1A00AFE200B0000000
00000AFFC4003FFB0660000000
000005FFB0000CFFAD10000000
000000EF300005FFF700000000
0000009A000000DFE100000000
000000220000006F8000000000
000000000000000B1000000000
ENDCHAR
STARTCHAR X
ENCODING 88
SWIDTH 868 0
DWIDTH 17 0
BBX 18 17 0 -1
BITMAP
00002369C100000000
DFFFFFFF5000000000
0139FFFF1001740000
00003EFF60000DDA30
000004FFD0001D3110
0000007FF600740000
0000000CFE23800000
00000003FFDC100000
00000000CFF9000000
00000002CCFD000000
0000000A22EF600000
00000085006FE10000
000006A0000BF80000
0014AF200002FF3000
4FFFFF300001BFD100
00136BE207FEEFFD61
000000210000001253
ENDCHAR
STARTCHAR Y
ENCODING 89
SWIDTH 796 0
DWIDTH 16 0
BBX 18 20 0 -3
BITMAP
001359D10000000000
AFFFF8100000873100
03BFF60000003CFFFA
000AFE2000000A6100
0000CFD20000760000
00001DFC1005900000
000003FFD25C000000
0000007FFFE2000000
0000000CFF70000000
00000004FF10000000
00000000FF00000000
00000000EF00000000
00000000FF10000000
00000000FF20000000
00000002FF30000000
00000003FF40000000
00000006FF50000000
0000003CFF80000000
00003EFFFFE4000000
00000000248B100000
ENDCHAR
STARTCHAR Z
ENCODING 90
SWIDTH 627 0
DWIDTH 13 0
BBX 12 17 1 -3
BITMAP
B73101254000
CFFFFFFF4000
C9103FFE0000
B0006FF80000
8000AFF20000
6000EFB00000
0003FF500000
0007FE000000
000CF8000000
001FF3000050
005FC0000090
00AF600000C1
01EF100001F5
05FB00002CF9
0AF8369DFFFE
0EFEB8521013
062000000000
ENDCHAR
STARTCHAR bracketleft
ENCODING 91
SWIDTH 344 0
DWIDTH 7 0
BBX 7 20 0 -4
BITMAP
01EDA720
05FB0120
08F50000
0AF30000
0CF10000
0EF00000
0FE00000
2FD00000
3FC00000
5FB00000
6FB00000
7FA00000
9FA00000
9F900000
AF900000
BFA00000
CFA00000
CFC00000
BFF40000
3BEFFD30
ENDCHAR
STARTCHAR backslash
ENCODING 92
SWIDTH 347 0
DWIDTH 7 0
BBX 7 22 0 -3
BITMAP
80000000
93000000
48000000
1B000000
0B100000
07500000
02900000
00C00000
00920000
00570000
001B0000
000C1000
00085000
00049000
0000D000
0000A300
00006700
00001C00
00000C10
00000750
00000290
00000050
ENDCHAR
STARTCHAR bracketright
ENCODING 93
SWIDTH 334 0
DWIDTH 7 0
BBX 7 19 0 -5
BITMAP
00025100
08DFF400
020DF600
000CF700
000BF900
000AFA00
0009FC00
0008FD00
0008FF00
0007FF10
0007FF20
0006FF40
0006FF50
0006FF60
0007FF70
0009FF50
005D8200
3A710000
31000000
ENDCHAR
STARTCHAR asciicircum
ENCODING 94
SWIDTH 658 0
DWIDTH 13 0
BBX 12 5 1 11
BITMAP
00005A000000
0004FF900000
005EDFFB1000
2AE702AFE710
C91000028DD1
ENDCHAR
STARTCHAR underscore
ENCODING 95
SWIDTH 678 0
DWIDTH 14 0
BBX 12 2 1 -7
BITMAP
24689BCDEEF6
776543211000
ENDCHAR
STARTCHAR grave
ENCODING 96
SWIDTH 278 0
DWIDTH 6 0
BBX 4 4 1 15
BITMAP
D700
8F50
09E1
0077
ENDCHAR
STARTCHAR a
ENCODING 97
SWIDTH 527 0
DWIDTH 11 0
BBX 12 15 0 -2
BITMAP
007DEB300000
05A12DE10000
0A8006F80000
0AFB03FD0000
03DD11FF1000
000000EF3000
000000DF6000
029DFEFF8000
2EC301BFB000
8F40008FD000
AF9114CFF100
6FFFFF7FF342
08DEB30EF963
00000009FFF0
00000001BE60
ENDCHAR
STARTCHAR b
ENCODING 98
SWIDTH 582 0
DWIDTH 12 0
BBX 14 23 -2 0
BITMAP
00007000000000
0001E100000000
026DF200000000
8FFFF200000000
002EF300000000
000AF300000000
0008F400000000
0007F400000000
0007F500000000
0006F600000000
0005F600000000
0005F700000000
0004F800000000
0003F917DFD500
0003FB8315EF70
0002FD00007FE1
0002FD00002FF4
0001FF00001FF4
0001FF20002FF2
0000FF60006FD0
0002FFD305EF40
002BFFFFFEA300
01EB7421100000
ENDCHAR
STARTCHAR c
ENCODING 99
SWIDTH 437 0
DWIDTH 9 0
BBX 9 11 0 1
BITMAP
0029EEB200
02C42FFC00
0C600DFE00
4F1007E800
8F00000000
AE00000900
AF10000740
7F40000560
2FC0000840
08FA215A00
006DFD8100
ENDCHAR
STARTCHAR d
ENCODING 100
SWIDTH 523 0
DWIDTH 10 0
BBX 11 19 0 1
BITMAP
00000002B100
0000028EF100
00002DBFF100
0000003FF000
0000003FF000
0000002FF000
0000001FE000
0000001FE000
0000001FE000
0000000FD000
0000000FD000
018DFEBFD000
0CFA203FC000
7FD0000EC000
BFA0000EC000
BFA0000EC000
8FE1000EC000
2EFA217FF400
029DFFDCCC90
ENDCHAR
STARTCHAR e
ENCODING 101
SWIDTH 434 0
DWIDTH 9 0
BBX 9 11 0 1
BITMAP
0019DEB300
02DB21CE20
0CF1007F50
4FB0009F30
8FA017FB00
9FEEFD8100
9FB0000000
7FE0000620
2FF6000650
07FF502C20
005CEEB400
ENDCHAR
STARTCHAR f
ENCODING 102
SWIDTH 299 0
DWIDTH 6 0
BBX 11 26 -1 -3
BITMAP
000001BFD500
00000C515F20
000067001F50
0000C206DF50
0001E07FFF20
0005C04ED500
0007B0000000
000AB0000000
000CE1141000
004FFFB60000
9DFFE2000000
112FE0000000
000FE0000000
000FE0000000
000FF0000000
000FF0000000
000EF1000000
000EF1000000
000EF2000000
000EF2000000
000EF3000000
000EF4000000
000EF5000000
000FFB200000
007FFFFB0000
0BA520000000
ENDCHAR
STARTCHAR g
ENCODING 103
SWIDTH 567 0
DWIDTH 11 0
BBX 13 20 -1 -8
BITMAP
000000001AEC30
0000000082AFB0
0006CEED80AFD0
008FE418F77E70
02FF7000FE0000
04FF5000EF2000
02FF6001FE0000
00AFD21BF70000
0007EFEC600000
001C7100000000
002F8100000000
0004DFEC830000
002BC227DF9000
02ED10001DF600
0BF7000006FA00
1FF4000003FA00
3FF6000005F700
1FFC00000BD000
06FFA202AC2000
004BEFDA500000
ENDCHAR
STARTCHAR h
ENCODING 104
SWIDTH 566 0
DWIDTH 11 0
BBX 13 22 -1 0
BITMAP
00005900000000
026CF800000000
3ECFF600000000
0008F400000000
0006F300000000
0006F200000000
0007F100000000
0008F000000000
0009E000000000
000AD000000000
000BC000000000
000CC000000000
000DB1AED50000
000EA923EF3000
001FE400AF7000
002FE0008F9000
003FA0008FA000
005F80008FA000
007F70009F9000
01DFA100AFC100
AFFFFC08FDDE30
11000004100000
ENDCHAR
STARTCHAR i
ENCODING 105
SWIDTH 301 0
DWIDTH 6 0
BBX 6 14 0 2
BITMAP
00CD30
00CE20
000000
014870
9FFF70
05FF50
00FF30
00FF20
00FF00
00FE00
00FD00
01FC00
05FE30
8EDEF9
ENDCHAR
STARTCHAR j
ENCODING 106
SWIDTH 367 0
DWIDTH 7 0
BBX 10 22 -3 -10
BITMAP
000000CE20
000000CE20
0001101350
0002AFFFF2
000004EFF5
0000005FF8
0000000DF9
00000009FB
00000005FC
00000003FD
00000000FD
00000000EE
00000000DD
00000000CD
00000000DB
02BE9000E9
0CFFF000F6
2FFC6003F2
3F300007C0
1E00001E40
099214D800
008EEC6000
ENDCHAR
STARTCHAR k
ENCODING 107
SWIDTH 567 0
DWIDTH 11 0
BBX 14 23 -2 -3
BITMAP
00004900000000
025AFA00000000
4FEFF900000000
0005FA00000000
0000FA00000000
0000EA00000000
0000EB00000000
0000DB00000000
0000DC00000000
0000DC09731000
0000DD02AFFC00
0000CE00971000
0000CF09500000
0000BFBF100000
0000BFAF700340
0000BF3FE20080
0000BF39FD41B2
0000BF51DFFFE0
0000AF602AED50
0000BF80000000
0002FFD1000000
039DDCCEF40000
00100000000000
ENDCHAR
STARTCHAR l
ENCODING 108
SWIDTH 354 0
DWIDTH 7 0
BBX 8 19 -1 -1
BITMAP
00004400
0003E500
005EF500
2AFFF500
D97FF600
000EF600
000CF700
000AF800
0008F800
0007F900
0005FA00
0004FB00
0002FC00
0001FD00
0000FE00
0000DF00
0002EF81
00CFFFFE
00220012
ENDCHAR
STARTCHAR m
ENCODING 109
SWIDTH 708 0
DWIDTH 14 0
BBX 14 10 0 1
BITMAP
004A0000000000
4CFF2BEA19ED30
01EF81BFA17FB0
00AF407F703FD0
008F207F502FD0
007F20AF604FB0
009F58FFE19FA0
2DFFE501439EC0
011023000001A6
00000000000001
ENDCHAR
STARTCHAR n
ENCODING 110
SWIDTH 584 0
DWIDTH 12 0
BBX 12 14 0 0
BITMAP
000100000000
005A00000000
02EC005EE700
3DFE04FFFF50
32FF1913DFA0
00BF72007FB0
007FA0004FB0
004FA0003FA0
001F90004F80
000D90005F60
000BB001AF50
000BE17FFF50
05EFFD114AB1
011013100035
ENDCHAR
STARTCHAR o
ENCODING 111
SWIDTH 503 0
DWIDTH 10 0
BBX 10 9 0 1
BITMAP
004BEFC600
07FB21AF90
2FF3000DF4
7FF00008F8
8FE00006F9
7FF20006F8
2FF70008F3
06FE514E80
004BEEC600
ENDCHAR
STARTCHAR p
ENCODING 112
SWIDTH 509 0
DWIDTH 10 0
BBX 10 19 0 -9
BITMAP
0008300000
04BF39ED80
6BEFA22CF6
009F5005FC
008F2004FD
008F1004FB
008F3008F7
008FA14ED0
009FCEEA20
009F500000
00AF500000
00AF500000
00AF500000
00BF600000
00BF700000
00DF800000
02FFD00000
5EEFFC2000
0001363000
ENDCHAR
STARTCHAR q
ENCODING 113
SWIDTH 505 0
DWIDTH 10 0
BBX 11 20 0 -9
BITMAP
000000001100
03BEEAAFA200
2EF613EF3000
8FB0009F2000
AF90009F2000
9FB000AF2000
3FF712EF2000
04CFD8CF2000
000000BF2000
000000CF2000
000000CF2000
000000CF2000
000000CF2000
000000CF2000
000000DF2000
000000DF2000
000001FF2000
0006FFFF8000
00000249ED10
000000000300
ENDCHAR
STARTCHAR r
ENCODING 114
SWIDTH 414 0
DWIDTH 8 0
BBX 10 14 0 0
BITMAP
000003DEA0
01691C31D6
8FFB832BF6
01FDA03EC1
00DF900000
00BF800000
00AF700000
009F800000
008FA00000
006FC00000
005FF00000
005FF40000
01AFFFD000
2D94210000
ENDCHAR
STARTCHAR s
ENCODING 115
SWIDTH 482 0
DWIDTH 10 0
BBX 11 16 -1 -2
BITMAP
000000000500
00003BED7800
0001EB12D500
0005F4007300
0005F8006100
0001DE301000
00004FE30000
000006FE4000
0000008FE300
0001300BFD00
00083002EF60
002D0000AF90
01CC00008F90
199E1000CF60
1104A217FC00
00003BEE9100
ENDCHAR
STARTCHAR t
ENCODING 116
SWIDTH 434 0
DWIDTH 9 0
BBX 9 16 0 0
BITMAP
00001C0000
00006B0000
0000C80000
0004F50000
005EFEE500
7EFFE51000
00AF800000
00DF300000
02FE000000
05FC000000
07FA000000
08FA000000
06FC005E40
03FF101D60
00BFB21B20
0019EFC400
ENDCHAR
STARTCHAR u
ENCODING 117
SWIDTH 744 0
DWIDTH 15 0
BBX 15 11 0 0
BITMAP
0000000014970000
0008300AEFF90000
03BF600005FA0000
8CEF900001FB0000
004FC00001FD0000
001FF00002FE0000
000EF40004EF1000
000BF900099F5000
0007FF515B6FFDC0
0001EFFFF4164200
00003CED50000000
ENDCHAR
STARTCHAR v
ENCODING 118
SWIDTH 600 0
DWIDTH 12 0
BBX 12 12 0 -1
BITMAP
0002A4000000
15BFC0000000
53CFF1000001
003FF504EEE9
000BFB001D20
0004FF101A00
0000DF705500
00006FD09000
00000DF68000
000006FF4000
000000DD0000
000000560000
ENDCHAR
STARTCHAR w
ENCODING 119
SWIDTH 745 0
DWIDTH 15 0
BBX 15 10 0 0
BITMAP
0001720000048BB0
038E7001B000D610
BEFF8006F601C000
01EFC00CFE157000
009FF237EF992000
003FF7917FFC0000
000DFE800CF70000
0007FF3002C10000
0001EB0000000000
0000840000000000
ENDCHAR
STARTCHAR x
ENCODING 120
SWIDTH 548 0
DWIDTH 11 0
BBX 13 12 -1 0
BITMAP
000137B8000000
1FFFFF71310100
003CFF52BFFC20
0001EFA03B2000
00007FF4A10000
00000DFF200000
000005FE000000
000002FF500000
00001CFFC00000
0004C63FF60000
00DA841CFFF500
000003D6200000
ENDCHAR
STARTCHAR y
ENCODING 121
SWIDTH 659 0
DWIDTH 13 0
BBX 13 19 0 -9
BITMAP
00017C00000250
049ED308EEFFB0
9FFF30003EFF00
05FF200008FD00
02FF300007FC00
00DF500008FB00
009F90000BF900
003FE1001BF800
000AFB2186F600
00008EEA17F300
0000000008F000
0000000009C000
000000000C8000
000000000E3000
001AEB004D0000
0064FF40B60000
0080BD15D00000
0087117E300000
0019EEA2000000
ENDCHAR
STARTCHAR z
ENCODING 122
SWIDTH 460 0
DWIDTH 9 0
BBX 10 12 0 0
BITMAP
5E95210000
6FECDEFE00
7B0006F700
83001EE100
60008F8000
0002EE1000
000AF80000
005FE10023
01DF800073
09FF2137E3
3FFFFFFFF1
3631000000
ENDCHAR
STARTCHAR braceleft
ENCODING 123
SWIDTH 460 0
DWIDTH 9 0
BBX 9 25 0 -6
BITMAP
00002CFD70
0000DB1000
0004F60000
0006F60000
0007F80000
0005FB0000
0003FF0000
0002FF3000
0002FF4000
0005FF2000
002DFA0000
4AEF910000
29A1000000
003B200000
0007D10000
0003F60000
0002FA0000
0003FD0000
0004FD0000
0005FD0000
0005FD0000
0005FE0000
0003FF1050
0000DF8190
00003BED40
ENDCHAR
STARTCHAR bar
ENCODING 124
SWIDTH 368 0
DWIDTH 7 0
BBX 2 21 3 -4
BITMAP
90
B0
A0
A0
A0
A0
A0
A0
A0
A0
A0
A0
91
81
82
72
63
64
54
45
34
ENDCHAR
STARTCHAR braceright
ENCODING 125
SWIDTH 476 0
DWIDTH 10 0
BBX 10 21 0 -5
BITMAP
05DFC40000
5819FF2000
8002FF8000
0000EFA000
0000DFA000
0000AFA000
00006FA000
00000BD100
0000004BB1
0000005F10
000000CE00
000000CF10
0000009F50
0000006F90
0000002FD0
0000000EF0
0000000CF1
0000000BE0
0000000E90
000004BC10
0001ED7100
ENDCHAR
STARTCHAR asciitilde
ENCODING 126
SWIDTH 733 0
DWIDTH 15 0
BBX 13 4 1 3
BITMAP
00000000000380
03BEEB73115E40
38128EFFFFF900
6000017CED7000
ENDCHAR
STARTCHAR nonbreakingspace
ENCODING 160
SWIDTH 270 0
DWIDTH 5 0
BBX 1 1 0 0
BITMAP
00
ENDCHAR
STARTCHAR exclamdown
ENCODING 161
SWIDTH 247 0
DWIDTH 5 0
BBX 3 21 1 -2
BITMAP
9E40
EF90
9E40
0000
0100
0B00
0F00
0F20
1F40
2F50
2F70
4F80
5F90
6FB0
8FC0
AFD0
BFD0
CFE0
DFD0
CFC0
6E50
ENDCHAR
STARTCHAR cent
ENCODING 162
SWIDTH 799 0
DWIDTH 16 0
BBX 10 19 3 -5
BITMAP
0001000000
0007000000
0007000000
0008DFE910
00BE812BC0
08F57007F5
1FD0701EF6
7F90701DD2
9F80440000
BF80170000
AFA0080000
6FD0080006
1EF6063063
04FE647580
003AEFE600
0000009200
0000004600
0000000A00
0000000400
ENDCHAR
STARTCHAR sterling
ENCODING 163
SWIDTH 799 0
DWIDTH 16 0
BBX 12 18 2 -2
BITMAP
00004BED9100
0006F612DB00
002F9000CF30
008F600AFF40
00BF602FFF20
00BF900BE700
009FD0000000
005FF4000000
159FFB871000
1317FF200000
0001EF800000
00008FE00000
00002FF20000
00000EF30000
02BEDEF20035
09303FD00008
0A219FCA4129
05EFD507DFC2
ENDCHAR
STARTCHAR currency
ENCODING 164
SWIDTH 732 0
DWIDTH 15 0
BBX 13 14 1 1
BITMAP
00000000930000
30000005B00000
5A38CEFFB00000
09F82014BA0000
0B5000000B4000
2C000000067000
59000000067000
69000000093000
3D1000004A0000
0BC41138F20000
01EFFEC75C2000
02F4000002B400
08B00000001830
0A200000000000
ENDCHAR
STARTCHAR yen
ENCODING 165
SWIDTH 799 0
DWIDTH 16 0
BBX 16 22 0 -3
BITMAP
0100126A00000042
2CFFFFE200036CA1
005DFFD002FFF500
0002EFF200087000
00005FF900090000
00000BFF20160000
000003FF90710000
000000AFF4900000
0000003FFF600000
0000000CFF400000
00000008FF300000
0000ADDFFFEEEFB0
00001116FF000000
00000127FFDED000
00005BACFE210000
00000006FD000000
00000006FD000000
00000007FE000000
0000000BFF710000
0000007FFFFF4000
00007EB742100000
0000320000000000
ENDCHAR
STARTCHAR brokenbar
ENCODING 166
SWIDTH 341 0
DWIDTH 7 0
BBX 1 23 3 -5
BITMAP
80
A0
A0
A0
A0
A0
B0
B0
40
00
30
90
A0
A0
A0
A0
A0
B0
B0
B0
C0
C0
A0
ENDCHAR
STARTCHAR section
ENCODING 167
SWIDTH 546 0
DWIDTH 11 0
BBX 9 23 1 -6
BITMAP
002AEFC400
02E911AF30
0AE0005FB0
0FD000AFD0
1FF3007E70
0DFD200000
06FFE30000
07DFFF6000
6D06EFF800
CA0019FF50
FD10004FC0
DFA00008D0
5FFC2005B0
08FFE50940
004DFFB600
00018FF500
000003EE10
0000003F50
0000000970
0000000660
00BE400720
00EFD22700
005DFC7000
ENDCHAR
STARTCHAR dieresis
ENCODING 168
SWIDTH 393 0
DWIDTH 8 0
BBX 5 2 2 13
BITMAP
BD3E60
CC3E50
ENDCHAR
STARTCHAR copyright
ENCODING 169
SWIDTH 1023 0
DWIDTH 20 0
BBX 19 18 1 -3
BITMAP
0000049CEFEB83000000
0003CC6310248EB20000
004D40000010019E3000
03D2000000600007D100
0C40008DFE900000A900
4B000BE417A000003E10
95005F70007000000D40
C1009F40003000000B60
D000AF30000000000A60
D0009F50000600000A50
D0004FB0000800000D30
C1000AF9219300002E00
8600007DFC5000007900
2C00000000000002E200
089000000000001C7000
00BA1000000004D90000
0008E8410137BD500000
000028CEFEDA50000000
ENDCHAR
STARTCHAR ordfeminine
ENCODING 170
SWIDTH 558 0
DWIDTH 11 0
BBX 10 10 1 6
BITMAP
19EE910000
AB13D80000
ED107E0000
BE207F2000
03BEFF3000
3FA25F4000
9E104F5071
BD006F6073
9F319DC1A1
2BFC34DE60
ENDCHAR
STARTCHAR guillemotleft
ENCODING 171
SWIDTH 608 0
DWIDTH 12 0
BBX 11 18 1 -5
BITMAP
000000000400
000000000900
000000503800
000005607600
00001D10C200
0001B803D000
001BE10C8000
04DF508F4000
7FFA04FF7000
AFFB01BFE100
09FF501DF600
009FE103FB00
000AF800AE00
0000CF203F10
00002E900C20
000004F10610
000000880000
000000070000
ENDCHAR
STARTCHAR logicalnot
ENCODING 172
SWIDTH 616 0
DWIDTH 12 0
BBX 11 6 1 4
BITMAP
000011111100
DFEEDCCBCF30
000000000B40
000000000A40
000000000A20
000000000100
ENDCHAR
STARTCHAR uni00AD
ENCODING 173
SWIDTH 436 0
DWIDTH 9 0
BBX 7 2 1 4
BITMAP
32001210
8CEFFE70
ENDCHAR
STARTCHAR registered
ENCODING 174
SWIDTH 1048 0
DWIDTH 21 0
BBX 19 18 1 -4
BITMAP
0000038CEFEC94000000
0003BD8310136AC40000
005DFEEFFFE9102A7000
03D205FB12BF80007600
0D3000E9005FB0000910
5A0000E9007F80000260
A40000DA26ED10000080
D10000EFFF9100000080
E00000EB6F7000000080
F00000EC1FD000700070
E20001FE09F500800080
B60019FF81DE41A00080
7C03FDCDFB2AED400550
1E500000030000000A00
05E3000000000000A400
007E60000000002B6000
0003CD8320125AC40000
0000049CEFEC94000000
ENDCHAR
STARTCHAR macron
ENCODING 175
SWIDTH 382 0
DWIDTH 8 0
BBX 6 1 1 16
BITMAP
9CEEF7
ENDCHAR
STARTCHAR degree
ENCODING 176
SWIDTH 346 0
DWIDTH 7 0
BBX 5 5 1 14
BITMAP
2BEB20
B517B0
D001D0
C517A0
3CEB10
ENDCHAR
STARTCHAR plusminus
ENCODING 177
SWIDTH 580 0
DWIDTH 12 0
BBX 10 8 1 3
BITMAP
0000450000
0000670000
0001970000
6FEDDDBBB5
0000440000
0000340000
0000110000
DEDCBBBA10
ENDCHAR
STARTCHAR twosuperior
ENCODING 178
SWIDTH 365 0
DWIDTH 7 0
BBX 7 11 0 7
BITMAP
006DE910
0451AF70
01005F90
00006F60
0000BD10
0008C200
03960000
3DC10040
01BEAB20
000BF300
00015000
ENDCHAR
STARTCHAR threesuperior
ENCODING 179
SWIDTH 371 0
DWIDTH 7 0
BBX 7 11 0 7
BITMAP
02002000
0FFFD000
07195000
00290000
005DD600
00009F60
20001FD0
70000EF0
72001FD0
3B21AF50
05DEC500
ENDCHAR
STARTCHAR acute
ENCODING 180
SWIDTH 234 0
DWIDTH 5 0
BBX 3 4 1 15
BITMAP
0690
2F40
9900
A000
ENDCHAR
STARTCHAR mu
ENCODING 181
SWIDTH 634 0
DWIDTH 13 0
BBX 13 19 0 -7
BITMAP
00100000000000
2EA00000300000
3F90001DF20000
2F90000DF30000
2FA00009F40000
2FC00007F50000
1FF10007F70810
1FF70009F90370
0FDD5159EC0090
0FD2BEB16F5380
0EE0000008EC10
0EF00000000000
0DF20000000000
0DF40000000000
0CF50000000000
0CF70000000000
0BF90000000000
0AFA0000000000
01000000000000
ENDCHAR
STARTCHAR paragraph
ENCODING 182
SWIDTH 707 0
DWIDTH 14 0
BBX 15 24 0 -7
BITMAP
0000000000004400
00000000248D7000
0028ACDFFFF70000
09FFFF810CF10000
7FFFFF500AD00000
DFFFFF400BB00000
FFFFFF300BA00000
DFFFFF300B900000
6FFFFF300C900000
06EFFF200C900000
0017FF200C900000
0000AF300DA00000
00008F300DA00000
00006F400EB00000
00005F500EC00000
00004F600ED00000
00004F700EF00000
00003F800EF20000
00003F900EF60000
00003FA00EFD4000
00004FB00DFDEE10
00009FB001000000
003AFD8000000000
09C7200000000000
ENDCHAR
STARTCHAR periodcentered
ENCODING 183
SWIDTH 238 0
DWIDTH 5 0
BBX 3 3 1 6
BITMAP
8E60
EFB0
9E60
ENDCHAR
STARTCHAR cedilla
ENCODING 184
SWIDTH 332 0
DWIDTH 7 0
BBX 5 7 1 -5
BITMAP
006000
025000
07E700
02AF60
001F90
815F60
4DE900
ENDCHAR
STARTCHAR onesuperior
ENCODING 185
SWIDTH 336 0
DWIDTH 7 0
BBX 7 9 0 9
BITMAP
00008000
0007E000
028EC000
0209C000
0009C000
000BC000
001EE000
6CEFF400
0146AD30
ENDCHAR
STARTCHAR ordmasculine
ENCODING 186
SWIDTH 503 0
DWIDTH 10 0
BBX 10 9 0 6
BITMAP
005CFEB400
068116EF50
1C00002EE1
4B000007F5
5D000002F7
3F300000F5
0DC00002F2
04FC412A80
003AEFC600
ENDCHAR
STARTCHAR guillemotright
ENCODING 187
SWIDTH 778 0
DWIDTH 16 0
BBX 14 19 1 -6
BITMAP
00000600000000
00000750000000
700001D2000000
A400006D200000
4E400009E30000
09F910009F7000
00AFF94008FC40
0007FFFE60BFF6
00003FF808FF80
0000BF507FE500
0008E404FD2000
004F400DE20000
00D7006F400000
06B000DA000000
0B2003F2000000
180006B0000000
01000860000000
00000710000000
00000200000000
ENDCHAR
STARTCHAR onequarter
ENCODING 188
SWIDTH 876 0
DWIDTH 18 0
BBX 18 20 0 -1
BITMAP
000000000000004000
000080000000057000
0007E00000002B0000
028EC0000000B30000
0209C0000008700000
0009C000004B000000
000BC00001D2000000
001EE0000B50520000
6CEFF4007900D40000
0146AD33C106F50000
0000001C301BF70000
000000970072F90100
000005B00260DB0600
00001C100800BD4D00
0000A4004DBDFFFE00
0006800013218F6000
002B000000009FE400
00B20000000CFFEFE1
066000000005300000
010000000000000000
ENDCHAR
STARTCHAR onehalf
ENCODING 189
SWIDTH 762 0
DWIDTH 15 0
BBX 15 20 0 -1
BITMAP
0000000000000040
0000800000000570
0007E00000002B00
028EC0000000B300
0209C00000087000
0009C000004B0000
000BC00001D20000
001EE0000B500000
6CEFF40079000000
0146AD33C18EE700
0000001C3632DF30
0000009701008F60
000005B000009F30
00001C100001EA00
0000A400001BA100
0006800005940000
002B00006E900140
00B2000003DDAA10
06600000002DD100
0100000000033000
ENDCHAR
STARTCHAR threequarters
ENCODING 190
SWIDTH 922 0
DWIDTH 18 0
BBX 18 20 0 -1
BITMAP
000000000000000400
020020000000004800
0FFFD000000001C100
0719500000000A5000
002900000000690000
005DD6000002C10000
00009F60000C300000
20001FD00097061000
70000EF005B01E3000
72001FD02D207F4000
3B21AF50B501CF6000
05DEC50790072F7010
0000003C00260E9060
000001C200800CC5C0
0000096005DBDFFFD0
00004A00023219F500
0001C10000000AFD30
000A30000001CFFEFE
004700000001520000
001000000000000000
ENDCHAR
STARTCHAR questiondown
ENCODING 191
SWIDTH 571 0
DWIDTH 11 0
BBX 11 18 0 -2
BITMAP
00002CE50000
00006FFA0000
00002DE50000
000000000000
000008300000
000000A00000
000001A00000
00000A500000
0001BC000000
003DF2000000
03EF803DEA10
0DFF10AFFFB0
4FFC005FFFF0
7FFB0002AFF0
7FFC00000DC0
3FFF30000D60
07FFD5128A00
004ADFEC6000
ENDCHAR
STARTCHAR Agrave
ENCODING 192
SWIDTH 784 0
DWIDTH 16 0
BBX 16 23 0 -2
BITMAP
000C800000000000
0007F60000000000
00008E2000000000
0000068000000000
0000000000000000
0000136B90000000
0008EDFFE1000000
000000DFF5000000
000001D9FB000000
00000574FF100000
00000A20EF600000
00001C00AFC00000
000068006FF20000
0000BE954FF70000
0002E26BFFFD0000
000880002DFF3000
001E200004FF9000
019B000000DFE000
EFFC1000008FF500
026BE000004FFB00
00001000000EFF81
00000000015FFFFE
000000000C952000
ENDCHAR
STARTCHAR Aacute
ENCODING 193
SWIDTH 784 0
DWIDTH 16 0
BBX 16 23 0 -2
BITMAP
00000002D0000000
0000000C90000000
0000004D10000000
0000008300000000
0000000000000000
0000136B90000000
0008EDFFE1000000
000000DFF5000000
000001D9FB000000
00000574FF100000
00000A20EF600000
00001C00AFC00000
000068006FF20000
0000BE954FF70000
0002E26BFFFD0000
000880002DFF3000
001E200004FF9000
019B000000DFE000
EFFC1000008FF500
026BE000004FFB00
00001000000EFF81
00000000015FFFFE
000000000C952000
ENDCHAR
STARTCHAR Acircumflex
ENCODING 194
SWIDTH 784 0
DWIDTH 16 0
BBX 16 23 0 -2
BITMAP
0000001C20000000
000000BDD3000000
00000A50AE600000
0000720006D50000
0000000000000000
0000136B90000000
0008EDFFE1000000
000000DFF5000000
000001D9FB000000
00000574FF100000
00000A20EF600000
00001C00AFC00000
000068006FF20000
0000BE954FF70000
0002E26BFFFD0000
000880002DFF3000
001E200004FF9000
019B000000DFE000
EFFC1000008FF500
026BE000004FFB00
00001000000EFF81
00000000015FFFFE
000000000C952000
ENDCHAR
STARTCHAR Atilde
ENCODING 195
SWIDTH 784 0
DWIDTH 16 0
BBX 16 23 0 -2
BITMAP
00006EC720000000
000073DFFF500000
0002201AEC100000
0000000000000000
0000000000000000
0000136B90000000
0008EDFFE1000000
000000DFF5000000
000001D9FB000000
00000574FF100000
00000A20EF600000
00001C00AFC00000
000068006FF20000
0000BE954FF70000
0002E26BFFFD0000
000880002DFF3000
001E200004FF9000
019B000000DFE000
EFFC1000008FF500
026BE000004FFB00
00001000000EFF81
00000000015FFFFE
000000000C952000
ENDCHAR
STARTCHAR Adieresis
ENCODING 196
SWIDTH 784 0
DWIDTH 16 0
BBX 16 22 0 -2
BITMAP
00002DC000000000
00007FF29E300000
00003EB09E300000
0000000000000000
0000136B90000000
0008EDFFE1000000
000000DFF5000000
000001D9FB000000
00000574FF100000
00000A20EF600000
00001C00AFC00000
000068006FF20000
0000BE954FF70000
0002E26BFFFD0000
000880002DFF3000
001E200004FF9000
019B000000DFE000
EFFC1000008FF500
026BE000004FFB00
00001000000EFF81
00000000015FFFFE
000000000C952000
ENDCHAR
STARTCHAR Aring
ENCODING 197
SWIDTH 784 0
DWIDTH 16 0
BBX 16 24 0 -2
BITMAP
000001AEB2000000
0000088169000000
00000B200B000000
0000097168000000
000002BEB1000000
0000000000000000
0000136B90000000
0008EDFFE1000000
000000DFF5000000
000001D9FB000000
00000574FF100000
00000A20EF600000
00001C00AFC00000
000068006FF20000
0000BE954FF70000
0002E26BFFFD0000
000880002DFF3000
001E200004FF9000
019B000000DFE000
EFFC1000008FF500
026BE000004FFB00
00001000000EFF81
00000000015FFFFE
000000000C952000
ENDCHAR
STARTCHAR AE
ENCODING 198
SWIDTH 1172 0
DWIDTH 23 0
BBX 24 21 0 -3
BITMAP
000000000000000000130000
00000000000000015AFB0000
00000000012368CFDADA0000
00000004FFFFFF8200380000
00000000128AFF2000150000
000000000063EF4000110000
000000000080CF6000500000
000000000160BF9001900000
000000000610AFC03BA00000
0000000007009FFFDEA00000
0000000053008FF301B00000
000000009001AFF200800070
00000004FEFEFFF4002000A0
0000000B51006FF6000001D0
0000004900003FF9000006F0
000000B200002FFC00002DF3
0000059000001FFF2028EFD4
00001D2000002FFFDCB73100
0000BA0000004FFB51000000
016DF8000001CB3000000000
DEDCCDE40039400000000000
ENDCHAR
STARTCHAR Ccedilla
ENCODING 199
SWIDTH 742 0
DWIDTH 15 0
BBX 15 25 0 -8
BITMAP
0000000000004200
0000000000007200
000000000000A200
00005ADFFDBCF300
003CFB41139FF500
03EF90000004F700
0CFD000000006B00
4FF7000000000900
9FF4000000000000
CFF2000000000000
DFF1000000000000
DFF2000000000060
CFF4000000000080
9FF8000000000170
3FFD000000000640
0BFF700000000A00
01DFF50000009400
002BFFA4114B6000
000049DEFD920000
0000000070000000
00000004B3000000
00000003CF400000
000000001FA00000
000000813F700000
0000004DEA100000
ENDCHAR
STARTCHAR Egrave
ENCODING 200
SWIDTH 557 0
DWIDTH 11 0
BBX 12 24 0 -3
BITMAP
03E400000000
01CE10000000
001CA0000000
0001A2000000
000000000000
5544468ACE00
2CFFB3101D00
04FF80000900
01FF80000600
00DF90000000
00BF90000000
009FA0020000
007FB0170000
006FFEF70000
004FC1760000
002FD0160000
001FE0030000
000FF0000000
000DF1000000
000CF2000032
000CF3000091
001DF60006E0
7EFFFFDCEFC0
000112457840
ENDCHAR
STARTCHAR Eacute
ENCODING 201
SWIDTH 557 0
DWIDTH 11 0
BBX 12 24 0 -3
BITMAP
0000004C0000
000000D70000
000005C00000
000009200000
000000000000
5544468ACE00
2CFFB3101D00
04FF80000900
01FF80000600
00DF90000000
00BF90000000
009FA0020000
007FB0170000
006FFEF70000
004FC1760000
002FD0160000
001FE0030000
000FF0000000
000DF1000000
000CF2000032
000CF3000091
001DF60006E0
7EFFFFDCEFC0
000112457840
ENDCHAR
STARTCHAR Ecircumflex
ENCODING 202
SWIDTH 557 0
DWIDTH 11 0
BBX 12 24 0 -3
BITMAP
00001C300000
0000ADE30000
0009609F7000
00730005D600
000000000000
5544468ACE00
2CFFB3101D00
04FF80000900
01FF80000600
00DF90000000
00BF90000000
009FA0020000
007FB0170000
006FFEF70000
004FC1760000
002FD0160000
001FE0030000
000FF0000000
000DF1000000
000CF2000032
000CF3000091
001DF60006E0
7EFFFFDCEFC0
000112457840
ENDCHAR
STARTCHAR Edieresis
ENCODING 203
SWIDTH 557 0
DWIDTH 11 0
BBX 12 23 0 -3
BITMAP
003DC0000000
007FF29E3000
003EB0AE3000
000000000000
5544468ACE00
2CFFB3101D00
04FF80000900
01FF80000600
00DF90000000
00BF90000000
009FA0020000
007FB0170000
006FFEF70000
004FC1760000
002FD0160000
001FE0030000
000FF0000000
000DF1000000
000CF2000032
000CF3000091
001DF60006E0
7EFFFFDCEFC0
000112457840
ENDCHAR
STARTCHAR Igrave
ENCODING 204
SWIDTH 438 0
DWIDTH 9 0
BBX 11 26 -1 -4
BITMAP
002E40000000
000BE2000000
0001CB000000
00001A300000
000000000000
3BBA99ACEFB0
025EFFFA2000
0006FFD00000
0003FF900000
0003FF600000
0003FF400000
0002FF200000
0002FF000000
0002FD000000
0002FC000000
0002FB000000
0002F9000000
0002F8000000
0002F7000000
0003F7000000
0003F6000000
0004F6000000
0007FB100000
006EFFFD0000
6C9521000000
400000000000
ENDCHAR
STARTCHAR Iacute
ENCODING 205
SWIDTH 438 0
DWIDTH 9 0
BBX 11 26 -1 -4
BITMAP
000000078000
0000003F3000
000000A80000
000000A00000
000000000000
3BBA99ACEFB0
025EFFFA2000
0006FFD00000
0003FF900000
0003FF600000
0003FF400000
0002FF200000
0002FF000000
0002FD000000
0002FC000000
0002FB000000
0002F9000000
0002F8000000
0002F7000000
0003F7000000
0003F6000000
0004F6000000
0007FB100000
006EFFFD0000
6C9521000000
400000000000
ENDCHAR
STARTCHAR Icircumflex
ENCODING 206
SWIDTH 438 0
DWIDTH 9 0
BBX 11 26 -1 -4
BITMAP
000008700000
00006DF70000
0005A15EA100
00450003BB00
000000000000
3BBA99ACEFB0
025EFFFA2000
0006FFD00000
0003FF900000
0003FF600000
0003FF400000
0002FF200000
0002FF000000
0002FD000000
0002FC000000
0002FB000000
0002F9000000
0002F8000000
0002F7000000
0003F7000000
0003F6000000
0004F6000000
0007FB100000
006EFFFD0000
6C9521000000
400000000000
ENDCHAR
STARTCHAR Idieresis
ENCODING 207
SWIDTH 438 0
DWIDTH 9 0
BBX 11 25 -1 -4
BITMAP
001CD2000000
004FF46E5000
001DD17E5000
000000000000
3BBA99ACEFB0
025EFFFA2000
0006FFD00000
0003FF900000
0003FF600000
0003FF400000
0002FF200000
0002FF000000
0002FD000000
0002FC000000
0002FB000000
0002F9000000
0002F8000000
0002F7000000
0003F7000000
0003F6000000
0004F6000000
0007FB100000
006EFFFD0000
6C9521000000
400000000000
ENDCHAR
STARTCHAR Eth
ENCODING 208
SWIDTH 730 0
DWIDTH 15 0
BBX 15 17 0 -5
BITMAP
1889ACEFEC930000
068FF7027EFF9000
000DF50002EFF900
000CF500006FFF20
000CF500001FFF80
000CF500000CFFB0
000CF531000BFFC0
5ADFFEB2000CFFB0
342DF500000DFF80
000DF500002FFF20
000EF600008FF700
000FF80004FF8000
002FFC128FC40000
007FFFEB83000000
04D8410000000000
6700000000000000
1000000000000000
ENDCHAR
STARTCHAR Ntilde
ENCODING 209
SWIDTH 799 0
DWIDTH 16 0
BBX 16 23 0 -4
BITMAP
0000000BEA400000
000000527FFFE000
0000004004DE7000
0000000000000000
0012200000000135
DFFFF70000EEEFD9
019FFF700003DB00
004EFFF600008600
002A5FFF50007500
001A08FFF5006400
001A00AFFF407300
000A001DFFE48300
000A0002EFFFE200
000A00005FFFF200
000A000007FFF200
000A000000AFF100
000A0000000BF100
000A00000001B000
001B000000000000
004D000000000000
02CF300000000000
AEEFE81000000000
0001582000000000
ENDCHAR
STARTCHAR Ograve
ENCODING 210
SWIDTH 747 0
DWIDTH 15 0
BBX 15 21 0 0
BITMAP
0006D20000000000
0002EC0000000000
00003E7000000000
000002B000000000
0000000000000000
0000000000000000
00018CEFDA500000
005EB3115EFC2000
04FC000001DFE200
1EF30000003FFB00
6FD00000000CFF40
AFA000000007FF80
DF9000000004FFB0
DF9000000002FFC0
CFB000000001FFB0
AFE000000002FF80
6FF400000003FF40
0EFB00000008FC00
04FF7000002EE200
005EFA3015ED3000
00017BEFEB600000
ENDCHAR
STARTCHAR Oacute
ENCODING 211
SWIDTH 747 0
DWIDTH 15 0
BBX 15 21 0 0
BITMAP
00000002D0000000
0000000C90000000
0000004D10000000
0000008300000000
0000000000000000
0000000000000000
00018CEFDA500000
005EB3115EFC2000
04FC000001DFE200
1EF30000003FFB00
6FD00000000CFF40
AFA000000007FF80
DF9000000004FFB0
DF9000000002FFC0
CFB000000001FFB0
AFE000000002FF80
6FF400000003FF40
0EFB00000008FC00
04FF7000002EE200
005EFA3015ED3000
00017BEFEB600000
ENDCHAR
STARTCHAR Ocircumflex
ENCODING 212
SWIDTH 747 0
DWIDTH 15 0
BBX 15 21 0 0
BITMAP
0000009600000000
000006DF60000000
00005906FA100000
000550003BA00000
0000000000000000
0000000000000000
00018CEFDA500000
005EB3115EFC2000
04FC000001DFE200
1EF30000003FFB00
6FD00000000CFF40
AFA000000007FF80
DF9000000004FFB0
DF9000000002FFC0
CFB000000001FFB0
AFE000000002FF80
6FF400000003FF40
0EFB00000008FC00
04FF7000002EE200
005EFA3015ED3000
00017BEFEB600000
ENDCHAR
STARTCHAR Otilde
ENCODING 213
SWIDTH 747 0
DWIDTH 15 0
BBX 15 20 0 0
BITMAP
00001DE930000000
000062AFFFB00000
00004006DE400000
0000000000000000
0000000000000000
00018CEFDA500000
005EB3115EFC2000
04FC000001DFE200
1EF30000003FFB00
6FD00000000CFF40
AFA000000007FF80
DF9000000004FFB0
DF9000000002FFC0
CFB000000001FFB0
AFE000000002FF80
6FF400000003FF40
0EFB00000008FC00
04FF7000002EE200
005EFA3015ED3000
00017BEFEB600000
ENDCHAR
STARTCHAR Odieresis
ENCODING 214
SWIDTH 747 0
DWIDTH 15 0
BBX 15 20 0 0
BITMAP
00004EA000000000
00009FE0BD100000
00005E90CD100000
0000000000000000
0000000000000000
00018CEFDA500000
005EB3115EFC2000
04FC000001DFE200
1EF30000003FFB00
6FD00000000CFF40
AFA000000007FF80
DF9000000004FFB0
DF9000000002FFC0
CFB000000001FFB0
AFE000000002FF80
6FF400000003FF40
0EFB00000008FC00
04FF7000002EE200
005EFA3015ED3000
00017BEFEB600000
ENDCHAR
STARTCHAR multiply
ENCODING 215
SWIDTH 541 0
DWIDTH 11 0
BBX 9 12 1 0
BITMAP
0000000170
0000000C40
0200009600
0A50058000
00B73A0000
000BF20000
000B8B2000
007702B500
03B0000300
1D20000000
9700000000
8000000000
ENDCHAR
STARTCHAR Oslash
ENCODING 216
SWIDTH 747 0
DWIDTH 15 0
BBX 15 20 0 -2
BITMAP
0000000000000010
0000000000000920
0000000000005800
00018CEFDA42C000
005EB3115DFE5000
04FB000001DFD200
1EF3000001DFFB00
6FD000000B4BFF30
AFA000008807FF80
DF900005B004FFB0
DF90002C1002FFC0
CFB000C30001FFB0
AFE009600002FF80
6FF35A000003FF40
1DFBC1000008FC00
04FF7000002EE200
007FF93015ED3000
01C27CEFEB600000
0940000000000000
0600000000000000
ENDCHAR
STARTCHAR Ugrave
ENCODING 217
SWIDTH 690 0
DWIDTH 14 0
BBX 15 21 0 1
BITMAP
000008C100000000
000003FA00000000
0000004E50000000
00000003A0000000
0000000000000000
0000000000000000
0000016C60000000
0357BFE600000000
EFFFFF3000000000
04EFFB02EDCCDB90
00AFF70003BF9000
008FF500000E5000
007FF400000A3000
007FF40000083000
006FF50000083000
004FF60000082000
002FF80000090000
000DFC0000090000
0006FF4000560000
00009FD304B00000
000006CFE9100000
ENDCHAR
STARTCHAR Uacute
ENCODING 218
SWIDTH 690 0
DWIDTH 14 0
BBX 15 18 0 1
BITMAP
000000000004B000
00000000001E6000
00000000007B0000
0000016C60910000
0357BFE600000000
EFFFFF3000000000
04EFFB02EDCCDB90
00AFF70003BF9000
008FF500000E5000
007FF400000A3000
007FF40000083000
006FF50000083000
004FF60000082000
002FF80000090000
000DFC0000090000
0006FF4000560000
00009FD304B00000
000006CFE9100000
ENDCHAR
STARTCHAR Ucircumflex
ENCODING 219
SWIDTH 690 0
DWIDTH 14 0
BBX 15 19 0 1
BITMAP
00000003C1000000
0000001DDC100000
000001B31CE40000
00001710008E2000
0000016C60000000
0357BFE600000000
EFFFFF3000000000
04EFFB02EDCCDB90
00AFF70003BF9000
008FF500000E5000
007FF400000A3000
007FF40000083000
006FF50000083000
004FF60000082000
002FF80000090000
000DFC0000090000
0006FF4000560000
00009FD304B00000
000006CFE9100000
ENDCHAR
STARTCHAR Udieresis
ENCODING 220
SWIDTH 690 0
DWIDTH 14 0
BBX 15 19 0 1
BITMAP
000003EB00000000
000008FF1AE20000
000004EA0AE20000
0000000000000000
0000016C60000000
0357BFE600000000
EFFFFF3000000000
04EFFB02EDCCDB90
00AFF70003BF9000
008FF500000E5000
007FF400000A3000
007FF40000083000
006FF50000083000
004FF60000082000
002FF80000090000
000DFC0000090000
0006FF4000560000
00009FD304B00000
000006CFE9100000
ENDCHAR
STARTCHAR Yacute
ENCODING 221
SWIDTH 796 0
DWIDTH 16 0
BBX 18 24 0 -3
BITMAP
000000000005A00000
00000000001E600000
00000000007B000000
000000000091000000
001359D10000000000
AFFFF8100000873100
03BFF60000003CFFFA
000AFE2000000A6100
0000CFD20000760000
00001DFC1005900000
000003FFD25C000000
0000007FFFE2000000
0000000CFF70000000
00000004FF10000000
00000000FF00000000
00000000EF00000000
00000000FF10000000
00000000FF20000000
00000002FF30000000
00000003FF40000000
00000006FF50000000
0000003CFF80000000
00003EFFFFE4000000
00000000248B100000
ENDCHAR
STARTCHAR Thorn
ENCODING 222
SWIDTH 479 0
DWIDTH 10 0
BBX 10 22 0 -2
BITMAP
0100000000
4FFFFF2000
03DF910000
009F300000
008F510000
008FFFEB40
008F417FF5
008D000CFC
009D0009FF
009E000BFD
00AE116FF5
00AFBEEC50
00BF000000
00BF000000
00CF000000
00CF000000
00DF000000
00EF000000
01FF100000
07FF600000
4FFFF80000
1200240000
ENDCHAR
STARTCHAR germandbls
ENCODING 223
SWIDTH 591 0
DWIDTH 12 0
BBX 13 22 -1 -3
BITMAP
005DEC50000000
02D319F5000000
096000EC000000
0C4000BE000000
0D4000AE000000
0D5000CB000000
0C7001E5000000
0BA00690000000
09D02600000000
07F4DFEC820000
05F5027EFF8000
02F90001CFF700
00FD00001DFE10
00CF200005FF50
009F600000CF70
006FB000007F80
004FF100004F60
002FF57E304F20
003FFAAFB19900
01BE953CFD7000
1A600000000000
31000000000000
ENDCHAR
STARTCHAR agrave
ENCODING 224
SWIDTH 527 0
DWIDTH 11 0
BBX 12 20 0 -2
BITMAP
4D3000000000
1DD100000000
02D900000000
001B10000000
000000000000
007DEB300000
05A12DE10000
0A8006F80000
0AFB03FD0000
03DD11FF1000
000000EF3000
000000DF6000
029DFEFF8000
2EC301BFB000
8F40008FD000
AF9114CFF100
6FFFFF7FF342
08DEB30EF963
00000009FFF0
00000001BE60
ENDCHAR
STARTCHAR aacute
ENCODING 225
SWIDTH 527 0
DWIDTH 11 0
BBX 12 20 0 -2
BITMAP
000001D10000
00000AA00000
00002E200000
000064000000
000000000000
007DEB300000
05A12DE10000
0A8006F80000
0AFB03FD0000
03DD11FF1000
000000EF3000
000000DF6000
029DFEFF8000
2EC301BFB000
8F40008FD000
AF9114CFF100
6FFFFF7FF342
08DEB30EF963
00000009FFF0
00000001BE60
ENDCHAR
STARTCHAR acircumflex
ENCODING 226
SWIDTH 527 0
DWIDTH 11 0
BBX 12 19 0 -2
BITMAP
0000B5000000
0008DE500000
007807F81000
0640004C8000
007DEB300000
05A12DE10000
0A8006F80000
0AFB03FD0000
03DD11FF1000
000000EF3000
000000DF6000
029DFEFF8000
2EC301BFB000
8F40008FD000
AF9114CFF100
6FFFFF7FF342
08DEB30EF963
00000009FFF0
00000001BE60
ENDCHAR
STARTCHAR atilde
ENCODING 227
SWIDTH 527 0
DWIDTH 11 0
BBX 12 18 0 -2
BITMAP
003ED8200000
0072CFFF8000
004008ED2000
007DEB300000
05A12DE10000
0A8006F80000
0AFB03FD0000
03DD11FF1000
000000EF3000
000000DF6000
029DFEFF8000
2EC301BFB000
8F40008FD000
AF9114CFF100
6FFFFF7FF342
08DEB30EF963
00000009FFF0
00000001BE60
ENDCHAR
STARTCHAR adieresis
ENCODING 228
SWIDTH 527 0
DWIDTH 11 0
BBX 12 18 0 -2
BITMAP
00BD3E600000
00CC3E500000
000000000000
007DEB300000
05A12DE10000
0A8006F80000
0AFB03FD0000
03DD11FF1000
000000EF3000
000000DF6000
029DFEFF8000
2EC301BFB000
8F40008FD000
AF9114CFF100
6FFFFF7FF342
08DEB30EF963
00000009FFF0
00000001BE60
ENDCHAR
STARTCHAR aring
ENCODING 229
SWIDTH 527 0
DWIDTH 11 0
BBX 12 21 0 -2
BITMAP
0007ED500000
003C22D00000
006700920000
004C12C00000
0008ED400000
000000000000
007DEB300000
05A12DE10000
0A8006F80000
0AFB03FD0000
03DD11FF1000
000000EF3000
000000DF6000
029DFEFF8000
2EC301BFB000
8F40008FD000
AF9114CFF100
6FFFFF7FF342
08DEB30EF963
00000009FFF0
00000001BE60
ENDCHAR
STARTCHAR ae
ENCODING 230
SWIDTH 700 0
DWIDTH 14 0
BBX 14 13 0 -2
BITMAP
000000029EEB20
05DD702C414FD0
1E22D493000BF2
4F507CB0000BF1
1DA06F90003FC0
003BFF7026EE30
05E54FEFED9200
2F501FA0000026
7E000FE100000A
AD002FF900004A
9F41B9FFB303D6
5FFFD1BFFFFFC0
08EC3008DFE910
ENDCHAR
STARTCHAR ccedilla
ENCODING 231
SWIDTH 437 0
DWIDTH 9 0
BBX 9 17 0 -5
BITMAP
0029EEB200
02C42FFC00
0C600DFE00
4F1007E800
8F00000000
AE00000900
AF10000740
8F40000560
3FC0000840
08FA215A00
006DFD8100
0000800000
0000EB2000
00006ED000
001009F100
00551CD000
0009EC3000
ENDCHAR
STARTCHAR egrave
ENCODING 232
SWIDTH 434 0
DWIDTH 9 0
BBX 9 16 0 1
BITMAP
09B1000000
04F9000000
005F400000
0004A00000
0000000000
0019DEB300
02DB21CE20
0CF1007F50
4FB0009F30
8FA017FB00
9FEEFD8100
9FB0000000
7FE0000620
2FF6000650
07FF502C20
005CEEB400
ENDCHAR
STARTCHAR eacute
ENCODING 233
SWIDTH 434 0
DWIDTH 9 0
BBX 9 16 0 1
BITMAP
000002D000
00000B9000
00004D1000
0000730000
0000000000
0019DEB300
02DB21CE20
0CF1007F50
4FB0009F30
8FA017FB00
9FEEFD8100
9FB0000000
7FE0000620
2FF6000650
07FF502C20
005CEEB400
ENDCHAR
STARTCHAR ecircumflex
ENCODING 234
SWIDTH 434 0
DWIDTH 9 0
BBX 9 17 0 1
BITMAP
0001C30000
000ADE3000
009609F700
0730005C60
0000000000
0000000000
0019DEB300
02DB21CE20
0CF1007F50
4FB0009F30
8FA017FB00
9FEEFD8100
9FB0000000
7FE0000620
2FF6000650
07FF502C20
005CEEB400
ENDCHAR
STARTCHAR edieresis
ENCODING 235
SWIDTH 434 0
DWIDTH 9 0
BBX 9 14 0 1
BITMAP
003E78D100
004E79D000
0000000000
0019DEB300
02DB21CE20
0CF1007F50
4FB0009F30
8FA017FB00
9FEEFD8100
9FB0000000
7FE0000620
2FF6000650
07FF502C20
005CEEB400
ENDCHAR
STARTCHAR igrave
ENCODING 236
SWIDTH 301 0
DWIDTH 6 0
BBX 7 16 -1 2
BITMAP
9A000000
5F900000
05F40000
00490000
00000000
00148700
09FFF700
005FF500
000FF300
000FF200
000FF000
000FE000
000FD000
001FC000
005FE300
08EDEF90
ENDCHAR
STARTCHAR iacute
ENCODING 237
SWIDTH 301 0
DWIDTH 6 0
BBX 6 16 0 2
BITMAP
0003C0
000C80
004D10
008200
000000
014870
9FFF70
05FF50
00FF30
00FF20
00FF00
00FE00
00FD00
01FC00
05FE30
8EDEF9
ENDCHAR
STARTCHAR icircumflex
ENCODING 238
SWIDTH 301 0
DWIDTH 6 0
BBX 8 16 -1 2
BITMAP
00087000
005DF700
05A15EA1
460002BB
00000000
00148700
09FFF700
005FF500
000FF300
000FF200
000FF000
000FE000
000FD000
001FC000
005FE300
08EDEF90
ENDCHAR
STARTCHAR idieresis
ENCODING 239
SWIDTH 301 0
DWIDTH 6 0
BBX 6 14 0 2
BITMAP
0CC4E5
1DB4E4
000000
014870
9FFF70
05FF50
00FF30
00FF20
00FF00
00FE00
00FD00
01FC00
05FE30
8EDEF9
ENDCHAR
STARTCHAR eth
ENCODING 240
SWIDTH 476 0
DWIDTH 10 0
BBX 12 18 -2 -2
BITMAP
000000004000
000000071000
004BEEB70000
09A312CF7000
65000626F500
00002500CD00
000010006F50
000000002F90
000000001FD0
00003CFD9FF0
0002FB22BFF1
000AF3001EF2
000EF1000AF3
000FF20007F2
000DF50006E0
0008FB0008A0
0001CF913D30
000018DFC400
ENDCHAR
STARTCHAR ntilde
ENCODING 241
SWIDTH 584 0
DWIDTH 12 0
BBX 12 17 0 0
BITMAP
00001DE93000
0000629FFFB0
00004006DE50
000100000000
005A00000000
02EC005EE700
3DFE04FFFF50
32FF1913DFA0
00BF72007FB0
007FA0004FB0
004FA0003FA0
001F90004F80
000D90005F60
000BB001AF50
000BE17FFF50
05EFFD114AB1
011013100035
ENDCHAR
STARTCHAR ograve
ENCODING 242
SWIDTH 400 0
DWIDTH 8 0
BBX 14 16 0 3
BITMAP
00000000002DC1
00000000003FF5
3E4000000006F5
0CE200000000B3
01CB00000000A0
001A3000000360
00000000001900
0000000002A100
000000038B1000
02BC9EEA500000
2EE21EB0000000
8F700AF7000000
BF4008FB000000
AF400BFA000000
3FB14FE2000000
04BEEA20000000
ENDCHAR
STARTCHAR oacute
ENCODING 243
SWIDTH 400 0
DWIDTH 8 0
BBX 14 16 0 3
BITMAP
00000000002DC1
00000000003FF5
000000000006F5
000002D00000B3
00000C900000A0
00004D10000360
00008300001900
0000000002A100
000000038B1000
02BC9EEA500000
2EE21EB0000000
8F700AF7000000
BF4008FB000000
AF400BFA000000
3FB14FE2000000
04BEEA20000000
ENDCHAR
STARTCHAR ocircumflex
ENCODING 244
SWIDTH 400 0
DWIDTH 8 0
BBX 14 16 0 3
BITMAP
00000000002DC1
00000000003FF5
0002C1000006F5
001CDC200000B3
01A41CE50000A0
1710007D300360
00000000001900
0000000002A100
000000038B1000
02BC9EEA500000
2EE21EB0000000
8F700AF7000000
BF4008FB000000
AF400BFA000000
3FB14FE2000000
04BEEA20000000
ENDCHAR
STARTCHAR otilde
ENCODING 245
SWIDTH 400 0
DWIDTH 8 0
BBX 14 16 0 3
BITMAP
00000000002DC1
00000000003FF5
000000000006F5
000000000000B3
005ED7200000A0
0073DFFF600360
013019EC101900
0000000002A100
000000038B1000
02BC9EEA500000
2EE21EB0000000
8F700AF7000000
BF4008FB000000
AF400BFA000000
3FB14FE2000000
04BEEA20000000
ENDCHAR
STARTCHAR odieresis
ENCODING 246
SWIDTH 400 0
DWIDTH 8 0
BBX 14 16 0 3
BITMAP
00000000002DC1
00000000003FF5
000000000006F5
000000000000B3
000000000000A0
007E4CA0000360
008E3D90001900
0000000002A100
000000038B1000
02BC9EEA500000
2EE21EB0000000
8F700AF7000000
BF4008FB000000
AF400BFA000000
3FB14FE2000000
04BEEA20000000
ENDCHAR
STARTCHAR divide
ENCODING 247
SWIDTH 592 0
DWIDTH 12 0
BBX 10 8 1 2
BITMAP
0005E60000
0006E60000
0000000000
0000000110
DFEEDDDDDA
0000000000
0005E70000
0006E60000
ENDCHAR
STARTCHAR oslash
ENCODING 248
SWIDTH 396 0
DWIDTH 8 0
BBX 8 12 0 0
BITMAP
00004100
0000A100
02AEFB30
2EB2BEE1
9F2658F7
BF0B07F8
9F490AF6
3FE45FC0
04EFE910
00C00000
03900000
06400000
ENDCHAR
STARTCHAR ugrave
ENCODING 249
SWIDTH 744 0
DWIDTH 15 0
BBX 15 16 0 0
BITMAP
0000AA0000000000
00005F8000000000
000006F300000000
0000005900000000
0000000000000000
0000000014970000
0008300AEFF90000
03BF600005FA0000
8CEF900001FB0000
004FC00001FD0000
001FF00002FE0000
000EF40004EF1000
000BF900099F5000
0007FF515B6FFDC0
0001EFFFF4164200
00003CED50000000
ENDCHAR
STARTCHAR uacute
ENCODING 250
SWIDTH 744 0
DWIDTH 15 0
BBX 15 16 0 0
BITMAP
00000004C0000000
0000000D70000000
0000005C00000000
0000009200000000
0000000000000000
0000000014970000
0008300AEFF90000
03BF600005FA0000
8CEF900001FB0000
004FC00001FD0000
001FF00002FE0000
000EF40004EF1000
000BF900099F5000
0007FF515B6FFDC0
0001EFFFF4164200
00003CED50000000
ENDCHAR
STARTCHAR ucircumflex
ENCODING 251
SWIDTH 744 0
DWIDTH 15 0
BBX 15 16 0 0
BITMAP
000003C100000000
00002DDB10000000
0001B32CD4000000
002710018E200000
0000000000000000
0000000014970000
0008300AEFF90000
03BF600005FA0000
8CEF900001FB0000
004FC00001FD0000
001FF00002FE0000
000EF40004EF1000
000BF900099F5000
0007FF515B6FFDC0
0001EFFFF4164200
00003CED50000000
ENDCHAR
STARTCHAR udieresis
ENCODING 252
SWIDTH 744 0
DWIDTH 15 0
BBX 15 14 0 0
BITMAP
00001CC4E4000000
00001DB4E4000000
0000000000000000
0000000014970000
0008300AEFF90000
03BF600005FA0000
8CEF900001FB0000
004FC00001FD0000
001FF00002FE0000
000EF40004EF1000
000BF900099F5000
0007FF515B6FFDC0
0001EFFFF4164200
00003CED50000000
ENDCHAR
STARTCHAR yacute
ENCODING 253
SWIDTH 659 0
DWIDTH 13 0
BBX 13 23 0 -9
BITMAP
000000003C0000
00000000C80000
00000005D10000
00000008200000
00017C00000250
049ED308EEFFB0
9FFF30003EFF00
05FF200008FD00
02FF300007FC00
00DF500008FB00
009F90000BF900
003FE1001BF800
000AFB2186F600
00008EEA17F300
0000000008F000
0000000009C000
000000000C8000
000000000E3000
001AEB004D0000
0064FF40B60000
0080BD15D00000
0087117E300000
0019EEA2000000
ENDCHAR
STARTCHAR thorn
ENCODING 254
SWIDTH 514 0
DWIDTH 10 0
BBX 11 30 -1 -13
BITMAP
001790000000
28EE30000000
DEFA00000000
03FA00000000
01FA00000000
00EB00000000
00DC00000000
00BC00000000
00AD7DFC5000
00AF914EF700
009F2006FF30
008F2001FF90
008F2000DFC0
007F3000CFD0
007F5000DFC0
007F8002FF90
006FD21BFF30
006F98EFC400
006F90000000
006FA0000000
006FB0000000
006FC0000000
006FD0000000
006FE0000000
007FF0000000
007FF1000000
008FF2000000
01CFF3000000
4FEFFB400000
000037BA0000
ENDCHAR
STARTCHAR ydieresis
ENCODING 255
SWIDTH 659 0
DWIDTH 13 0
BBX 13 23 0 -9
BITMAP
000003E87E1000
000004E78D1000
00000000000000
00000000000000
00017C00000250
049ED308EEFFB0
9FFF30003EFF00
05FF200008FD00
02FF300007FC00
00DF500008FB00
009F90000BF900
003FE1001BF800
000AFB2186F600
00008EEA17F300
0000000008F000
0000000009C000
000000000C8000
000000000E3000
001AEB004D0000
0064FF40B60000
0080BD15D00000
0087117E300000
0019EEA2000000
ENDCHAR
STARTCHAR dotlessi
ENCODING 305
SWIDTH 301 0
DWIDTH 6 0
BBX 6 11 0 2
BITMAP
014870
9FFF70
05FF50
00FF30
00FF20
00FF00
00FE00
00FD00
01FC00
05FE30
8EDEF9
ENDCHAR
STARTCHAR OE
ENCODING 338
SWIDTH 1132 0
DWIDTH 23 0
BBX 23 21 0 -4
BITMAP
000000000000000000042000
000000000000000016CF3000
00017BEFD933EFFFFCAD4000
003DE6103AF86FF610045000
03EE2000006FBFF000006000
0DF700000009FFF000000000
5FF100000001EFF100000000
AFD0000000009FF200020000
CFD0000000005FF300250000
DFF0000000003FF514C30000
CFF3000000002FFFCAE30000
9FF7000000002FF700640000
4FFD100000004FF700140000
0CFF800000009FF800000000
02EFF6000004CFF900000050
002DFFA301791FFB00000180
00006BEFEB500FFC00000970
0000000000000FFE0135BF70
0000000000007FFFFFFFFF80
00000000003CC85310011210
000000000021000000000000
ENDCHAR
STARTCHAR oe
ENCODING 339
SWIDTH 798 0
DWIDTH 16 0
BBX 16 10 0 1
BITMAP
008EEC50019EE800
0BB13CF71CD23E50
5F5001EFAF500B90
9F40007FFF000D70
AF60002FFE118F20
8FB0000EFFEEC445
3FF3000FFF200009
09FD418A8F800018
006CFE910BF712A2
00000000007DEB30
ENDCHAR
STARTCHAR circumflex
ENCODING 710
SWIDTH 483 0
DWIDTH 10 0
BBX 8 4 1 14
BITMAP
000B5000
008DF500
07807F91
640004C9
ENDCHAR
STARTCHAR caron
ENCODING 711
SWIDTH 428 0
DWIDTH 9 0
BBX 7 6 1 14
BITMAP
00000020
70000810
5B109200
08DB6000
00DC0000
00750000
ENDCHAR
STARTCHAR ring
ENCODING 730
SWIDTH 330 0
DWIDTH 7 0
BBX 5 5 1 17
BITMAP
2CEA00
B51960
D00380
C41950
3CE900
ENDCHAR
STARTCHAR tilde
ENCODING 732
SWIDTH 433 0
DWIDTH 9 0
BBX 7 3 1 15
BITMAP
3ED82000
72BFFF90
4008ED30
ENDCHAR
STARTCHAR mu.dup1
ENCODING 956
SWIDTH 634 0
DWIDTH 13 0
BBX 13 19 0 -7
BITMAP
00100000000000
2EA00000300000
3F90001DF20000
2F90000DF30000
2FA00009F40000
2FC00007F50000
1FF10007F70810
1FF70009F90370
0FDD5159EC0090
0FD2BEB16F5380
0EE0000008EC10
0EF00000000000
0DF20000000000
0DF40000000000
0CF50000000000
0CF70000000000
0BF90000000000
0AFA0000000000
01000000000000
ENDCHAR
STARTCHAR endash
ENCODING 8211
SWIDTH 436 0
DWIDTH 9 0
BBX 7 2 1 4
BITMAP
32001210
8CEFFE70
ENDCHAR
STARTCHAR emdash
ENCODING 8212
SWIDTH 651 0
DWIDTH 13 0
BBX 11 2 1 4
BITMAP
03468ABDEFD0
787654322100
ENDCHAR
STARTCHAR quoteleft
ENCODING 8216
SWIDTH 287 0
DWIDTH 6 0
BBX 4 6 1 11
BITMAP
0284
1D40
9F60
EFE1
EFF5
6EC1
ENDCHAR
STARTCHAR quoteright
ENCODING 8217
SWIDTH 291 0
DWIDTH 6 0
BBX 4 7 1 9
BITMAP
8EB1
EFF9
AFFC
09FC
00B8
00B2
0940
ENDCHAR
STARTCHAR quotesinglbase
ENCODING 8218
SWIDTH 272 0
DWIDTH 5 0
BBX 4 7 1 -4
BITMAP
7EB1
DFF6
9FF6
08F3
01D0
0660
0800
ENDCHAR
STARTCHAR quotedblleft
ENCODING 8220
SWIDTH 445 0
DWIDTH 9 0
BBX 7 7 1 9
BITMAP
00470000
06A00730
3F305A00
BF40CD10
EFD0DFC0
EFF37E90
6EC10000
ENDCHAR
STARTCHAR quotedblright
ENCODING 8221
SWIDTH 444 0
DWIDTH 9 0
BBX 7 8 1 9
BITMAP
9E900000
EFF2AE50
9FF6FFD0
0AF2DFC0
04C04F90
08501E20
18008500
00084000
ENDCHAR
STARTCHAR quotedblbase
ENCODING 8222
SWIDTH 482 0
DWIDTH 10 0
BBX 8 8 1 -6
BITMAP
7EC10000
EFF82DD3
BFFB8FF9
1BFA4FF8
00D608F4
00C105D0
05400B40
00006500
ENDCHAR
STARTCHAR bullet
ENCODING 8226
SWIDTH 351 0
DWIDTH 7 0
BBX 5 5 1 6
BITMAP
2BEC30
BFFFC0
FFFFF0
CFFFC0
3CEC30
ENDCHAR
STARTCHAR guilsinglleft
ENCODING 8249
SWIDTH 465 0
DWIDTH 9 0
BBX 8 13 1 -2
BITMAP
00000500
00002800
0000B200
00099000
008E2000
1BF80000
CFF90000
19FF4000
005EE100
0003EA00
00003E50
000003C1
00000022
ENDCHAR
STARTCHAR guilsinglright
ENCODING 8250
SWIDTH 449 0
DWIDTH 9 0
BBX 7 13 1 -2
BITMAP
33000000
1C100000
08A00000
01EA1000
005FC300
000DFF90
002FFB20
00BF8000
05F80000
0DA00000
5D100000
A4000000
90000000
ENDCHAR
STARTCHAR fraction
ENCODING 8260
SWIDTH 406 0
DWIDTH 8 0
BBX 14 20 -3 -1
BITMAP
00000000000013
000000000000A2
00000000000670
00000000003B00
0000000001C200
00000000096000
000000005B0000
00000002D10000
0000000C400000
00000088000000
000004C0000000
00001D20000000
0000A500000000
00059000000000
002C1000000000
00B30000000000
07700000000000
3B000000000000
A1000000000000
10000000000000
ENDCHAR
STARTCHAR foursuperior
ENCODING 8308
SWIDTH 473 0
DWIDTH 9 0
BBX 9 12 0 7
BITMAP
0000610000
0001E30000
0007F40000
001CF60000
0072F70100
0260E90600
0800CC5C00
5DBDFFFD00
23219F5000
0000AFD300
001CFFEFE0
0015200000
ENDCHAR
STARTCHAR Euro
ENCODING 8364
SWIDTH 799 0
DWIDTH 16 0
BBX 17 17 0 -1
BITMAP
000000000000000080
00000017CEFD920760
000004EFA3128FDE00
00004FF7000007F900
0001EFB0000001E400
0009FF30000000A100
001EFE000520006000
005FFA488400000000
02AFFC503300000000
59BFF98B6000000000
04CFFC400000000000
ECAFF8000000060000
002FFA000000080000
000BFE100000170000
0003EF900000720000
00004EFA3027600000
0000029DFEB4000000
ENDCHAR
STARTCHAR minus
ENCODING 8722
SWIDTH 436 0
DWIDTH 9 0
BBX 7 2 1 4
BITMAP
32001210
8CEFFE70
ENDCHAR
STARTCHAR f_f
ENCODING 64256
SWIDTH 467 0
DWIDTH 9 0
BBX 12 30 0 -7
BITMAP
00005DE80000
000548FF2000
000906FF3000
004702EFEEA1
008400A819F8
00B204C02DFB
00E10A70BFF9
00F10D407EC2
02F11F300000
02F12F300000
03F22F423000
03F9AFECB000
2CF96F600000
14F40F800000
02F60DA00000
02F70BD00000
01F909F10000
00FB07F40000
00ED04F80000
00DF01FC0000
00CF20DF3000
00BF50AFC100
009F708FFE50
008F91DB5100
006FC4500000
005FE0000000
004FF4000000
005FFA000000
02BFFF500000
5FDDEFFB0000
ENDCHAR
STARTCHAR .notdef
ENCODING -1
SWIDTH 270 0
DWIDTH 5 0
BBX 5 12 0 0
BITMAP
4FFFA0
100010
100010
100010
100010
100010
100010
100010
100010
100010
100010
4FFFA0
ENDCHAR
STARTCHAR .null
ENCODING -1
SWIDTH 0 0
DWIDTH 0 0
BBX 1 1 0 0
BITMAP
00
ENDCHAR
STARTCHAR nonmarkingreturn
ENCODING -1
SWIDTH 270 0
DWIDTH 5 0
BBX 1 1 0 0
BITMAP
00
ENDCHAR
STARTCHAR dieresis.case
ENCODING -1
SWIDTH 393 0
DWIDTH 8 0
BBX 6 3 1 15
BITMAP
9E5000
EF92EA
9E43E9
ENDCHAR
STARTCHAR o.cmp
ENCODING -1
SWIDTH 400 0
DWIDTH 8 0
BBX 14 16 0 3
BITMAP
00000000002DC1
00000000003FF5
000000000006F5
000000000000B3
000000000000A0
00000000000360
00000000001900
0000000002A100
000000038B1000
02BC9EEA500000
2EE21EB0000000
8F700AF7000000
BF4008FB000000
AF400BFA000000
3FB14FE2000000
04BEEA20000000
ENDCHAR
STARTCHAR n_n
ENCODING -1
SWIDTH 1024 0
DWIDTH 21 0
BBX 21 14 0 -1
BITMAP
0038000000000000000000
17FC008EE7000000000000
BBFF09FFFF403A40000000
00EF5B13EFAAFF50000000
00AFC2008FB0AF56DE8000
007FC0005FB09F941CF600
003FA0004FA09F9006FA00
001F90004F909F5005FC00
000D90004F70AF4007FB00
000BB0006F50BF7009F800
000BE101AF47FEC62EF500
05EFFD8FFF74300AFFFA00
0110131004C50000014720
0000000000020000000000
ENDCHAR
STARTCHAR a_a
ENCODING -1
SWIDTH 911 0
DWIDTH 18 0
BBX 19 14 0 -2
BITMAP
0000000001AEEB200000
000000000CB11AE10000
000000002FE201E90000
04CEC3000CE300CD0000
1E31AD00000000CF0000
5F501F3019EFC7DF1000
3E800E60DE5128FF2000
00000E76F8D600EF2000
02ADFF89F5BB00FF3000
3EF61D97F70A01FF3000
8F900ED1EE3837FF4000
8FB156F94CFD80DF5050
1BED505CFD40007FA180
0000000000000008ED30
ENDCHAR
STARTCHAR t_h
ENCODING -1
SWIDTH 854 0
DWIDTH 17 0
BBX 19 26 -1 -4
BITMAP
0000000005A000000000
00000015BFB000000000
000009FFFFA000000000
000000009F9000000000
000000003F9000000000
000000002F8000000000
000000903F7000000000
000009904F6000000000
0015CF805F5000000000
3CFFFFFFFFFA00000000
1213FF206F4000000000
0003FC007F25CFD81000
0005FA008F8921AFB000
0006F9009FB0000EF400
0007F900AF50000BF700
0006F900BF22DB0AF900
0005FA00CF03FF19F900
0002FD00DE009E0AF800
0000BF60FD008A0BF600
00002DE8FD16D10DF300
0000018DFFD8100FF000
00000006FF71003FD000
0000017FFFFF208FB000
00000994100006EFB000
000000000001EFFFF400
00000000000000038D10
ENDCHAR
STARTCHAR s_s
ENCODING -1
SWIDTH 654 0
DWIDTH 13 0
BBX 14 18 -1 -3
BITMAP
00000000310002
00006DEB700035
0002F71C3AEEE3
0005F305AE32D2
0003F600EB0072
0000BE20CD0021
00002ED28F4000
000004FD3FD100
0000006FC8F900
0030000BF7EF50
01900004FA7FD0
05A01CD3FA1FF5
0BE17F95F70CFA
333AA43DD10BFB
0002BFD9100CFA
00001900002FF5
0000079214DFA0
0000005CFEC600
ENDCHAR
STARTCHAR t_t
ENCODING -1
SWIDTH 569 0
DWIDTH 11 0
BBX 12 18 0 -2
BITMAP
000003E90000
000086F80000
000797F73720
03BFACFF9100
CFFFEFF70000
01FF3CF10000
01FF0CE00000
02FE0CE00000
03FC0BE00000
03FC09F00000
03FC07F32EC1
03FC02F81AE5
01FD00AE5193
00DF1008DE80
008F40000000
001EA002DD10
0005F718FE10
00003BEFC300
ENDCHAR
STARTCHAR e_e
ENCODING -1
SWIDTH 782 0
DWIDTH 16 0
BBX 16 11 0 0
BITMAP
018DEA103BEE9100
0CE41C73EB22D800
7F60098CF1007C00
CF300D6FC0005C00
DF44C95FB0008A00
CFFB505FB000C500
9FB0002FE005C080
2EF6000DF54D2064
04EF9315FEC20074
0017CEFECFD403B1
0000000005CEEB20
ENDCHAR
STARTCHAR o_o
ENCODING -1
SWIDTH 751 0
DWIDTH 15 0
BBX 21 17 0 1
BITMAP
000000000000000002DC10
000000000000000003FF60
0000000000000000006F50
0000000000000000000B30
0000000000000000000B00
0000000000000000003700
000000000000000001A100
00000000000000002B3000
005BEEA200000149C30000
07FA217E7D69FEB6000000
2FD0000CF600DA00000000
8F80001EE0008F50000000
AF60004FF1006F90000000
9F50002FE0009F80000000
6F80003FD315FD10000000
0CE513DE9DFD9200000000
018DFEA300000000000000
ENDCHAR
STARTCHAR l_l
ENCODING -1
SWIDTH 573 0
DWIDTH 11 0
BBX 13 20 -1 -3
BITMAP
000780148D0000
04BF95EFFF0000
58BF800AFF0000
008F8007FF0000
007F9005FF0000
007F9004FF0000
007F9003FF0000
007F9003FF0000
006FA002FF0000
006FA002FF1000
007FA001FF2000
007FB001FF3000
007FB001FF4000
007FC000FF6000
008FC000FF9000
008FD002FFD200
00AFE05CDDEF60
DEFFF310000000
0359EC10000000
00000570000000
ENDCHAR
STARTCHAR z_z
ENCODING -1
SWIDTH 875 0
DWIDTH 18 0
BBX 19 15 -1 -1
BITMAP
000000B62026C1000000
000000DEFFFFB0000000
00000060015F60000000
00000000008E10000000
00AFFFFFF2E900000000
007119FF76F400000000
00300DFB1EE000000000
00007FE27F9000000000
0002EF61EF4002500000
000AFB07FE0019500000
004FF20CFFFFFF50BE50
01DF700000000000EFA0
08FC0000000000008F80
3FFCDEFECA752102AD10
0000012358ACEFEC7100
ENDCHAR
STARTCHAR j_j
ENCODING -1
SWIDTH 577 0
DWIDTH 12 0
BBX 15 28 -3 -13
BITMAP
000000002DD20000
000000006FF50000
000000CE5EC10000
000000CE22690000
000000009FFF5000
0001101356FFA000
0002AFFFF2BFE000
000004EFF53FF200
0000005FF80DF500
0000000DF909F800
00000009FB05FA00
00000005FC02FC00
00000003FD00ED00
00000000FD00CF00
00000000EE00AF10
00000000DD008F10
00000000CD007F20
00000000DB006F20
02BE9000E9005F10
0CFFF000F6005F10
2FFC6003F2005E00
3F300007C0006C00
1E00001E40007A00
099214D800009600
008EEC655000B200
0000003FF4019000
0000003FFB171000
00000007EEA20000
ENDCHAR
STARTCHAR f_b
ENCODING -1
SWIDTH 731 0
DWIDTH 15 0
BBX 16 26 -1 -3
BITMAP
000002BFD4000000
00001D415E200000
000077001F600000
0000D203BF600000
0003E05FFF300000
0006C07FFA100000
0009B0056A900000
000BB04CFFA00000
001EE35CEFA00000
59DFF7414FA00000
656FE0002FA00000
000FE0000FA00000
000FE0000F900000
000FF0000F900000
000FF0000F900000
000FF1000F900000
000FF1000FCBED70
000FF2000FD23EF4
000EF2000F800BF9
000EF3000F700CF9
000EF3003FB15FF4
000EF401DFFFFD60
000EF50751011000
000FFA0000000000
004FFFE900000000
0795200000000000
ENDCHAR
STARTCHAR f_k
ENCODING -1
SWIDTH 708 0
DWIDTH 14 0
BBX 14 23 0 -3
BITMAP
00000570000000
00029F70000000
04CFFFEEC40000
0011DF71DE1000
00079F74FF4000
001E3F7CFF3000
006B1F88E90000
00A91F80000000
00D81F90000000
2BF70F90751000
12F60FA00AFC60
01F60FB01A3000
01F60FC0910000
02F50ED9E00030
02F50EE6F60017
02F50EF2FD1009
03F50EF19FC21C
03F60DF31EFFFA
04F60DF402BEC2
07F80DF6000000
5FFC1FFC430000
004BFFFFFF3000
00232101220000
ENDCHAR
STARTCHAR f_h
ENCODING -1
SWIDTH 873 0
DWIDTH 17 0
BBX 19 26 -1 -3
BITMAP
000001BFC40000000000
00000C415E2000000000
000077001F5000000000
0000C204CF6000000000
0002E06FFF2200000000
0005C06FF78900000000
0008B0025CF700000000
000AB02DFFF500000000
000DE4481AF400000000
016FFE8406F200000000
ADEFE10006F100000000
001FE00007F000000000
000FE00008F000000000
000FE00009E000000000
000FF00009E000000000
000FF0000AD08EE80000
000EF1000CD831CF7000
000EF1000DE7006FB000
000EF2000EF2005FD000
000EF3000FE0005FD000
000EF3002FB0005FD000
000EF4004FA0007FE100
000EF501BFB001DFFE50
000FF97FFFF705410210
005FFFEA014600000000
07A52000000000000000
ENDCHAR
ENDFONT
